<?xml version="1.0" standalone="no"?>
<!DOCTYPE svg PUBLIC "-//W3C//DTD SVG 20010904//EN"
 "http://www.w3.org/TR/2001/REC-SVG-20010904/DTD/svg10.dtd">
<svg version="1.0" xmlns="http://www.w3.org/2000/svg"
 width="486.000000pt" height="600.000000pt" viewBox="0 0 486.000000 600.000000"
 preserveAspectRatio="xMidYMid meet">

<g transform="translate(0.000000,600.000000) scale(0.100000,-0.100000)"
fill="#000000" stroke="none">
<path d="M318 5958 c-119 -147 -181 -281 -217 -472 -110 -568 43 -1392 389
-2101 177 -362 356 -633 669 -1012 63 -76 121 -154 129 -173 26 -61 15 -354
-24 -615 -17 -119 -71 -435 -80 -469 -5 -21 0 -28 33 -44 21 -11 71 -30 111
-43 39 -12 72 -25 72 -28 0 -4 -92 -175 -204 -381 l-205 -375 -435 -3 -436 -2
-60 -120 -60 -120 1510 0 c830 0 1510 3 1510 8 0 4 -19 58 -42 119 l-43 113
-277 0 c-153 0 -278 1 -278 3 0 8 252 702 261 718 7 15 21 19 58 19 26 0 82 3
124 6 l77 7 10 36 c6 20 16 78 22 129 7 50 16 92 21 92 23 0 193 -183 340
-365 89 -110 184 -223 213 -252 57 -58 153 -110 263 -144 66 -19 88 -21 195
-16 187 9 429 78 502 143 l22 19 -58 160 c-32 88 -56 161 -55 163 2 2 112 -51
245 -118 l243 -121 -7 73 c-51 552 -317 1268 -748 2011 -260 447 -569 779
-1030 1103 -223 157 -581 357 -794 444 l-81 33 23 58 c75 184 107 365 108 599
0 207 -22 342 -84 534 -37 113 -157 377 -177 389 -4 3 -81 -40 -170 -95 l-162
-100 -63 25 c-291 117 -630 128 -895 31 -54 -19 -105 -38 -114 -41 -13 -4
-161 97 -305 209 -7 5 -24 -7 -46 -34z m177 -234 l107 -67 106 26 c322 79 651
73 927 -18 l100 -33 141 79 c78 43 144 79 147 79 18 0 114 -340 143 -504 94
-526 -42 -958 -371 -1185 -102 -71 -188 -108 -319 -139 -145 -34 -394 -38
-521 -8 -222 51 -394 157 -525 322 -223 280 -288 631 -198 1069 28 140 133
445 152 445 3 0 53 -30 111 -66z m95 -1723 c168 -118 322 -175 517 -192 145
-13 252 -3 390 37 159 46 359 159 468 265 23 21 43 39 45 39 3 0 -23 -57 -57
-127 -117 -240 -148 -370 -148 -628 0 -219 13 -281 90 -440 122 -253 462 -607
945 -986 218 -171 599 -430 1172 -799 l147 -95 71 -178 c38 -98 70 -182 70
-186 0 -11 -160 -58 -244 -72 -89 -15 -193 -7 -276 21 -114 38 -183 94 -363
292 -322 355 -607 663 -617 666 -6 2 -10 -56 -10 -155 0 -87 -3 -209 -7 -271
l-6 -112 -246 2 -246 3 -43 115 c-48 129 -94 284 -111 375 -25 135 -101 233
-301 385 -292 222 -597 538 -836 866 -184 254 -387 611 -513 906 -53 125 -135
354 -169 475 l-20 72 111 -113 c62 -62 146 -137 187 -165z m1867 37 c186 -92
586 -318 683 -386 112 -79 212 -166 336 -294 382 -396 746 -1034 1044 -1833
83 -222 194 -564 186 -572 -16 -17 -770 419 -1056 610 -321 214 -857 626
-1076 825 -330 301 -544 621 -590 884 -42 242 47 552 234 811 28 39 38 46 56
41 11 -3 94 -42 183 -86z m-926 -2080 c46 -40 157 -131 246 -202 134 -106 162
-133 158 -150 -3 -12 -23 -133 -45 -271 -50 -314 -49 -305 -67 -305 -27 0
-498 112 -507 121 -10 8 114 879 124 879 3 0 44 -33 91 -72z m503 -685 c13
-27 47 -104 76 -173 28 -69 55 -129 60 -133 4 -5 48 -12 98 -15 l89 -7 -135
-352 -135 -353 -388 0 -388 0 17 48 c18 51 307 631 322 646 5 5 60 5 135 0 70
-5 129 -6 131 -2 4 5 84 374 84 384 0 14 13 -3 34 -43z"/>
<path d="M630 5386 c-166 -45 -246 -147 -238 -301 6 -113 71 -220 162 -267 57
-29 181 -37 239 -14 54 20 102 55 132 95 l23 32 17 -43 c9 -24 62 -160 117
-303 55 -143 103 -263 107 -267 4 -5 60 131 126 301 l119 309 38 -43 c55 -63
126 -95 207 -95 136 0 214 45 276 160 36 68 40 82 39 145 -2 173 -122 287
-319 302 -76 6 -203 -11 -229 -30 -10 -7 -61 -169 -133 -420 -64 -224 -119
-404 -123 -400 -4 4 -51 161 -104 348 -54 187 -106 370 -117 407 l-19 66 -70
16 c-81 19 -187 20 -250 2z m122 -106 c57 -16 96 -54 113 -113 21 -70 19 -95
-11 -156 -33 -66 -83 -100 -155 -107 -112 -11 -189 66 -189 189 0 71 21 119
66 153 54 42 109 52 176 34z m1013 -9 c106 -48 147 -195 81 -293 -26 -40 -98
-78 -146 -78 -70 1 -155 59 -179 123 -25 66 -3 189 41 225 24 19 90 41 128 41
19 0 53 -8 75 -18z"/>
<path d="M620 5242 c-52 -26 -80 -74 -80 -140 0 -70 26 -113 86 -142 106 -52
224 23 224 142 0 118 -124 194 -230 140z"/>
<path d="M1630 5249 c-58 -23 -92 -79 -92 -150 0 -165 221 -215 297 -68 21 39
19 107 -4 149 -34 65 -129 97 -201 69z"/>
</g>
</svg>
