<?xml version="1.0" standalone="no"?>
<!DOCTYPE svg PUBLIC "-//W3C//DTD SVG 20010904//EN"
 "http://www.w3.org/TR/2001/REC-SVG-20010904/DTD/svg10.dtd">
<svg version="1.0" xmlns="http://www.w3.org/2000/svg"
 width="525.000000pt" height="410.000000pt" viewBox="0 0 525.000000 410.000000"
 preserveAspectRatio="xMidYMid meet">

<g transform="translate(0.000000,410.000000) scale(0.100000,-0.100000)"
fill="#000000" stroke="none">
<path d="M2603 3975 c0 -14 6 -21 20 -22 15 -2 17 1 9 9 -8 8 -8 15 -1 24 8
10 6 13 -9 11 -13 -1 -19 -8 -19 -22z"/>
<path d="M2612 3895 c0 -16 2 -22 5 -12 2 9 2 23 0 30 -3 6 -5 -1 -5 -18z"/>
<path d="M1257 3813 c-14 -14 -6 -24 14 -18 18 6 19 5 10 -13 -6 -12 -16 -24
-21 -27 -25 -15 -5 -25 50 -25 33 0 60 4 60 10 0 6 -5 10 -10 10 -6 0 -6 7 1
19 7 10 9 26 6 35 -8 20 -47 21 -47 1 0 -9 6 -12 15 -9 20 8 19 -3 -2 -30 -10
-12 -26 -20 -36 -18 -15 3 -16 6 -3 24 8 11 12 27 9 34 -5 14 -35 19 -46 7z"/>
<path d="M1380 3810 c0 -5 7 -10 15 -10 18 0 17 3 6 -38 -13 -44 2 -40 19 6 8
20 16 40 18 45 2 4 -10 7 -27 7 -17 0 -31 -4 -31 -10z"/>
<path d="M1557 3813 c-14 -14 -6 -24 14 -18 18 6 19 5 10 -13 -6 -12 -16 -24
-21 -27 -25 -15 -5 -25 50 -25 33 0 60 4 60 10 0 6 -5 10 -10 10 -6 0 -6 7 1
19 7 10 9 26 6 35 -8 20 -47 21 -47 1 0 -9 6 -12 15 -9 20 8 19 -3 -2 -30 -10
-12 -26 -20 -36 -18 -15 3 -16 6 -3 24 8 11 12 27 9 34 -5 14 -35 19 -46 7z"/>
<path d="M1689 3813 c-1 -4 -2 -24 -2 -43 -2 -31 1 -35 23 -35 23 0 25 4 25
40 0 34 -3 40 -22 43 -13 2 -23 0 -24 -5z m31 -59 c0 -8 -4 -12 -10 -9 -5 3
-10 10 -10 16 0 5 5 9 10 9 6 0 10 -7 10 -16z"/>
<path d="M1867 3813 c-14 -14 -6 -24 14 -18 18 6 19 5 10 -13 -6 -12 -16 -24
-21 -27 -25 -15 -5 -25 50 -25 33 0 60 4 60 10 0 6 -5 10 -10 10 -6 0 -6 7 1
19 7 10 9 26 6 35 -8 20 -47 21 -47 1 0 -9 6 -12 15 -9 20 8 19 -3 -2 -30 -10
-12 -26 -20 -36 -18 -15 3 -16 6 -3 24 8 11 12 27 9 34 -5 14 -35 19 -46 7z"/>
<path d="M1997 3813 c-15 -14 -6 -44 16 -53 l22 -9 -23 0 c-28 -1 -19 -21 8
-21 22 0 36 37 25 69 -6 20 -34 28 -48 14z m33 -22 c0 -6 -4 -13 -10 -16 -5
-3 -10 1 -10 9 0 9 5 16 10 16 6 0 10 -4 10 -9z"/>
<path d="M2197 3813 c-14 -14 -6 -24 14 -18 18 6 19 5 10 -13 -6 -12 -16 -24
-21 -27 -20 -12 -9 -25 20 -25 17 0 30 5 30 10 0 6 -7 10 -16 10 -13 0 -14 2
0 21 8 12 12 28 9 35 -5 14 -35 19 -46 7z"/>
<path d="M2267 3814 c-12 -12 -8 -24 6 -19 8 3 13 -6 14 -26 2 -26 0 -29 -12
-19 -12 10 -15 9 -15 -4 0 -12 7 -16 23 -14 19 3 22 9 22 43 0 28 -5 41 -15
43 -9 1 -19 0 -23 -4z"/>
<path d="M2332 3808 c-26 -26 -8 -83 24 -76 15 2 19 12 19 43 0 42 -19 57 -43
33z m28 -39 c0 -17 -4 -28 -10 -24 -5 3 -10 17 -10 31 0 13 5 24 10 24 6 0 10
-14 10 -31z"/>
<path d="M2547 3813 c-14 -14 -6 -24 14 -18 18 6 19 5 10 -13 -6 -12 -16 -24
-21 -27 -20 -12 -9 -25 20 -25 17 0 30 5 30 10 0 6 -7 10 -16 10 -13 0 -14 2
0 21 8 12 12 28 9 35 -5 14 -35 19 -46 7z"/>
<path d="M2617 3814 c-12 -12 -8 -24 6 -19 8 3 13 -6 14 -26 2 -26 0 -29 -12
-19 -12 10 -15 9 -15 -4 0 -12 7 -16 23 -14 19 3 22 9 22 43 0 28 -5 41 -15
43 -9 1 -19 0 -23 -4z"/>
<path d="M2688 3806 c-22 -16 -23 -27 -4 -20 11 4 16 -4 19 -28 3 -26 4 -23 5
15 1 26 1 47 0 47 -2 0 -11 -7 -20 -14z"/>
<path d="M2887 3813 c-14 -14 -6 -24 14 -18 18 6 19 5 10 -13 -6 -12 -16 -24
-21 -27 -20 -12 -9 -25 20 -25 17 0 30 5 30 10 0 6 -7 10 -16 10 -13 0 -14 2
0 21 8 12 12 28 9 35 -5 14 -35 19 -46 7z"/>
<path d="M2957 3814 c-12 -12 -8 -24 6 -19 8 3 13 -6 14 -26 2 -26 0 -29 -12
-19 -12 10 -15 9 -15 -4 0 -12 7 -16 23 -14 19 3 22 9 22 43 0 28 -5 41 -15
43 -9 1 -19 0 -23 -4z"/>
<path d="M3017 3813 c-14 -13 -6 -24 13 -18 11 3 20 2 20 -3 0 -5 -9 -17 -20
-27 -28 -25 -25 -35 10 -35 17 0 30 5 30 10 0 6 -7 10 -17 10 -15 0 -14 2 2
20 9 10 15 26 12 35 -6 15 -38 21 -50 8z"/>
<path d="M3217 3813 c-14 -14 -6 -24 14 -18 18 6 19 5 10 -13 -6 -12 -16 -24
-21 -27 -20 -12 -9 -25 20 -25 17 0 30 5 30 10 0 6 -7 10 -16 10 -13 0 -14 2
0 21 8 12 12 28 9 35 -5 14 -35 19 -46 7z"/>
<path d="M3287 3814 c-12 -12 -8 -24 6 -19 8 3 13 -6 14 -26 2 -26 0 -29 -12
-19 -12 10 -15 9 -15 -4 0 -12 7 -16 23 -14 19 3 22 9 22 43 0 28 -5 41 -15
43 -9 1 -19 0 -23 -4z"/>
<path d="M3350 3806 c0 -8 7 -21 15 -30 21 -20 20 -43 0 -26 -9 7 -18 10 -22
6 -11 -10 13 -28 33 -24 15 2 19 12 19 43 0 34 -3 40 -22 43 -15 2 -23 -2 -23
-12z"/>
<path d="M3557 3813 c-14 -14 -6 -24 14 -18 18 6 19 5 10 -13 -6 -12 -16 -24
-21 -27 -20 -12 -9 -25 20 -25 17 0 30 5 30 10 0 6 -7 10 -16 10 -13 0 -14 2
0 21 8 12 12 28 9 35 -5 14 -35 19 -46 7z"/>
<path d="M3627 3814 c-12 -12 -8 -24 6 -19 8 3 13 -6 14 -26 2 -26 0 -29 -12
-19 -12 10 -15 9 -15 -4 0 -12 7 -16 23 -14 19 3 22 9 22 43 0 28 -5 41 -15
43 -9 1 -19 0 -23 -4z"/>
<path d="M3697 3791 c-22 -37 -21 -41 3 -41 11 0 20 -6 20 -12 0 -10 2 -10 8
-1 9 15 3 83 -7 83 -4 0 -14 -13 -24 -29z m23 -16 c0 -8 -4 -15 -10 -15 -5 0
-7 7 -4 15 4 8 8 15 10 15 2 0 4 -7 4 -15z"/>
<path d="M3867 3813 c-14 -14 -6 -24 14 -18 18 6 19 5 10 -13 -6 -12 -16 -24
-21 -27 -20 -12 -9 -25 20 -25 17 0 30 5 30 10 0 6 -7 10 -16 10 -13 0 -14 2
0 21 8 12 12 28 9 35 -5 14 -35 19 -46 7z"/>
<path d="M3937 3814 c-12 -12 -8 -24 6 -19 8 3 13 -6 14 -26 2 -26 0 -29 -12
-19 -12 10 -15 9 -15 -4 0 -12 7 -16 23 -14 19 3 22 9 22 43 0 28 -5 41 -15
43 -9 1 -19 0 -23 -4z"/>
<path d="M3998 3795 c-4 -19 -1 -25 13 -25 11 0 19 -7 19 -16 0 -13 -3 -14
-14 -5 -10 8 -16 9 -21 1 -8 -13 20 -24 40 -16 21 7 19 43 -2 55 -17 10 -17
10 0 11 9 0 17 5 17 10 0 6 -11 10 -24 10 -17 0 -25 -7 -28 -25z"/>
<path d="M957 3703 c-14 -14 -6 -24 14 -18 18 6 19 5 10 -13 -6 -12 -16 -24
-21 -27 -25 -15 -5 -25 50 -25 33 0 60 4 60 10 0 6 -5 10 -10 10 -6 0 -6 7 1
19 7 10 9 26 6 35 -8 20 -47 21 -47 1 0 -9 6 -12 15 -9 20 8 19 -3 -2 -30 -10
-12 -26 -20 -36 -18 -15 3 -16 6 -3 24 8 11 12 27 9 34 -5 14 -35 19 -46 7z"/>
<path d="M1092 3698 c-26 -26 -8 -83 24 -76 29 5 30 46 2 57 l-23 10 23 0 c13
1 20 5 17 11 -8 14 -28 13 -43 -2z m28 -54 c0 -8 -4 -12 -10 -9 -5 3 -10 10
-10 16 0 5 5 9 10 9 6 0 10 -7 10 -16z"/>
<path d="M4157 3703 c-14 -14 -6 -24 14 -18 18 6 19 5 10 -13 -6 -12 -16 -24
-21 -27 -20 -12 -9 -25 20 -25 17 0 30 5 30 10 0 6 -7 10 -16 10 -13 0 -14 2
0 21 8 12 12 28 9 35 -5 14 -35 19 -46 7z"/>
<path d="M4227 3704 c-12 -12 -8 -24 6 -19 8 3 13 -6 14 -26 2 -26 0 -29 -12
-19 -12 10 -15 9 -15 -4 0 -12 7 -16 23 -14 19 3 22 9 22 43 0 28 -5 41 -15
43 -9 1 -19 0 -23 -4z"/>
<path d="M4292 3698 c-26 -26 -8 -83 24 -76 29 5 30 46 2 57 l-23 10 23 0 c13
1 20 5 17 11 -8 14 -28 13 -43 -2z m28 -54 c0 -8 -4 -12 -10 -9 -5 3 -10 10
-10 16 0 5 5 9 10 9 6 0 10 -7 10 -16z"/>
<path d="M2614 3590 c0 -63 1 -89 3 -57 2 31 2 83 0 115 -2 31 -3 5 -3 -58z"/>
<path d="M1597 3592 c-25 -27 -22 -78 5 -96 12 -9 30 -16 38 -16 27 0 60 39
60 69 0 54 -68 82 -103 43z m37 -16 c-3 -7 2 -16 10 -19 8 -3 20 -16 26 -29 9
-19 9 -21 -2 -7 -7 9 -24 19 -36 24 -20 6 -23 4 -20 -12 2 -10 11 -17 21 -17
9 1 17 -2 17 -7 0 -15 -27 -10 -41 7 -10 12 -10 20 -1 35 7 10 12 26 12 34 0
9 4 14 10 10 5 -3 7 -12 4 -19z"/>
<path d="M2236 3588 c-22 -31 -20 -64 6 -88 29 -27 54 -25 83 5 30 29 31 45 4
79 -26 33 -71 35 -93 4z m65 -41 c19 -18 27 -43 10 -32 -5 3 -12 1 -16 -5 -10
-16 -33 -12 -45 9 -7 15 -6 23 5 35 8 8 16 23 16 33 1 16 2 15 6 -2 3 -11 14
-28 24 -38z"/>
<path d="M2262 3532 c4 -19 29 -23 35 -6 2 6 -6 14 -17 17 -16 4 -20 1 -18
-11z"/>
<path d="M2916 3588 c-22 -31 -20 -64 6 -88 29 -27 54 -25 83 5 30 29 31 45 4
79 -26 33 -71 35 -93 4z m65 -41 c19 -18 27 -43 10 -32 -5 3 -12 1 -16 -5 -10
-16 -33 -12 -45 9 -7 15 -6 23 5 35 8 8 16 23 16 33 1 16 2 15 6 -2 3 -11 14
-28 24 -38z"/>
<path d="M2942 3532 c4 -19 29 -23 35 -6 2 6 -6 14 -17 17 -16 4 -20 1 -18
-11z"/>
<path d="M3607 3592 c-25 -27 -22 -78 5 -96 12 -9 30 -16 38 -16 27 0 60 39
60 69 0 54 -68 82 -103 43z m37 -16 c-3 -7 2 -16 10 -19 8 -3 20 -16 26 -29 9
-19 9 -21 -2 -7 -7 9 -24 19 -36 24 -20 6 -23 4 -20 -12 2 -10 11 -17 21 -17
9 1 17 -2 17 -7 0 -15 -27 -10 -41 7 -10 12 -10 20 -1 35 7 10 12 26 12 34 0
9 4 14 10 10 5 -3 7 -12 4 -19z"/>
<path d="M1096 3498 c-22 -31 -20 -64 6 -88 29 -27 54 -25 83 5 30 29 31 45 4
79 -26 33 -71 35 -93 4z m65 -41 c19 -18 27 -43 10 -32 -5 3 -12 1 -16 -5 -10
-16 -33 -12 -45 9 -7 15 -6 23 5 35 8 8 16 23 16 33 1 16 2 15 6 -2 3 -11 14
-28 24 -38z"/>
<path d="M1122 3442 c4 -19 29 -23 35 -6 2 6 -6 14 -17 17 -16 4 -20 1 -18
-11z"/>
<path d="M4067 3482 c-25 -27 -22 -78 5 -96 12 -9 30 -16 38 -16 27 0 60 39
60 69 0 54 -68 82 -103 43z m37 -16 c-3 -7 2 -16 10 -19 8 -3 20 -16 26 -29 9
-19 9 -21 -2 -7 -7 9 -24 19 -36 24 -20 6 -23 4 -20 -12 2 -10 11 -17 21 -17
9 1 17 -2 17 -7 0 -15 -27 -10 -41 7 -10 12 -10 20 -1 35 7 10 12 26 12 34 0
9 4 14 10 10 5 -3 7 -12 4 -19z"/>
<path d="M2606 3444 c-10 -25 -7 -30 14 -30 13 0 19 5 15 14 -3 7 -5 18 -5 23
0 15 -17 10 -24 -7z"/>
<path d="M687 3383 c-14 -14 -6 -24 14 -18 18 6 19 5 10 -13 -6 -12 -16 -24
-21 -27 -25 -15 -5 -25 50 -25 33 0 60 4 60 10 0 6 -5 10 -10 10 -6 0 -6 7 1
19 7 10 9 26 6 35 -8 20 -47 21 -47 1 0 -9 6 -12 15 -9 20 8 19 -3 -2 -30 -10
-12 -26 -20 -36 -18 -15 3 -16 6 -3 24 8 11 12 27 9 34 -5 14 -35 19 -46 7z"/>
<path d="M818 3365 c-4 -19 -1 -25 13 -25 11 0 19 -7 19 -16 0 -13 -3 -14 -14
-5 -10 8 -16 9 -21 1 -8 -13 20 -24 40 -16 21 7 19 43 -2 55 -17 10 -17 10 0
11 9 0 17 5 17 10 0 6 -11 10 -24 10 -17 0 -25 -7 -28 -25z"/>
<path d="M4437 3383 c-14 -14 -6 -24 14 -18 18 6 19 5 10 -13 -6 -12 -16 -24
-21 -27 -20 -12 -9 -25 20 -25 17 0 30 5 30 10 0 6 -7 10 -16 10 -13 0 -14 2
0 21 8 12 12 28 9 35 -5 14 -35 19 -46 7z"/>
<path d="M4507 3384 c-12 -12 -8 -24 6 -19 8 3 13 -6 14 -26 2 -26 0 -29 -12
-19 -12 10 -15 9 -15 -4 0 -12 7 -16 23 -14 19 3 22 9 22 43 0 28 -5 41 -15
43 -9 1 -19 0 -23 -4z"/>
<path d="M4560 3380 c0 -5 7 -10 15 -10 18 0 17 3 6 -38 -13 -44 2 -40 19 6 8
20 16 40 18 45 2 4 -10 7 -27 7 -17 0 -31 -4 -31 -10z"/>
<path d="M1392 3295 c-9 -19 -9 -25 1 -26 6 0 27 -2 45 -3 29 -3 32 -1 32 25
0 35 -12 37 -33 7 l-16 -23 0 23 c-1 29 -15 28 -29 -3z"/>
<path d="M1592 3295 c-6 -14 -8 -25 -4 -25 4 -1 24 -3 45 -6 33 -5 37 -3 37
15 0 12 -6 21 -12 21 -9 0 -8 4 2 10 12 8 11 10 -7 10 -15 0 -23 -7 -26 -22
l-4 -23 -2 23 c-1 29 -15 28 -29 -3z"/>
<path d="M1752 3295 c-6 -14 -8 -25 -4 -25 4 -1 24 -3 45 -6 36 -5 37 -5 37
25 0 24 -4 31 -19 31 -12 0 -21 -8 -24 -22 l-4 -23 -2 23 c-1 29 -15 28 -29
-3z"/>
<path d="M1902 3296 c-9 -20 -8 -25 8 -29 24 -6 28 -2 22 28 -6 31 -16 32 -30
1z"/>
<path d="M1946 3314 c6 -3 9 -17 7 -32 l-4 -27 15 25 c21 34 20 40 -6 39 -13
0 -18 -3 -12 -5z"/>
<path d="M2052 3295 c-6 -14 -8 -25 -4 -25 4 -1 24 -3 45 -6 36 -5 37 -5 37
25 0 24 -4 31 -19 31 -12 0 -21 -8 -24 -22 l-4 -23 -2 23 c-1 29 -15 28 -29
-3z"/>
<path d="M2202 3295 c-13 -27 -14 -26 43 -29 26 -1 30 3 30 24 0 33 -32 40
-38 8 l-4 -23 -2 23 c-1 29 -15 28 -29 -3z"/>
<path d="M2350 3300 c0 -11 0 -23 0 -27 0 -5 18 -9 40 -10 38 -3 40 -2 40 27
0 28 -2 30 -40 30 -33 0 -40 -3 -40 -20z m40 0 c0 -5 -7 -7 -15 -4 -8 4 -15 8
-15 10 0 2 7 4 15 4 8 0 15 -4 15 -10z"/>
<path d="M2507 3294 c-5 -29 17 -44 36 -25 9 10 8 16 -7 27 -17 12 -17 14 -3
14 9 0 19 -11 23 -25 8 -34 24 -32 24 3 0 26 -4 29 -34 30 -29 1 -35 -2 -39
-24z"/>
<path d="M2670 3300 c0 -11 0 -23 0 -27 0 -5 19 -9 42 -10 27 -2 38 0 29 6 -9
6 -10 11 -2 15 26 17 11 36 -29 36 -33 0 -40 -3 -40 -20z m49 1 c7 -5 9 -11 4
-14 -4 -3 -17 1 -28 9 -21 16 0 20 24 5z"/>
<path d="M2820 3301 c0 -12 0 -24 0 -28 0 -5 18 -9 40 -10 39 -3 41 -2 37 25
-3 23 -9 27 -40 30 -32 3 -37 0 -37 -17z m51 -13 l12 -23 -24 20 c-13 11 -26
21 -28 22 -2 2 3 3 12 3 9 0 22 -10 28 -22z"/>
<path d="M2970 3300 c0 -11 0 -23 0 -27 0 -5 18 -8 40 -9 37 0 40 2 40 28 0
31 -14 37 -28 13 -5 -10 -15 -13 -27 -9 -18 7 -18 8 1 15 17 7 17 8 -3 8 -17
1 -23 -5 -23 -19z"/>
<path d="M3120 3300 c0 -11 0 -23 0 -27 0 -5 18 -9 40 -10 34 -2 40 0 40 17 0
11 -6 20 -12 20 -9 0 -8 4 2 10 11 7 4 10 -27 10 -36 0 -43 -3 -43 -20z m40 0
c0 -5 -7 -7 -15 -4 -8 4 -15 8 -15 10 0 2 7 4 15 4 8 0 15 -4 15 -10z"/>
<path d="M3280 3300 c0 -11 0 -23 0 -27 0 -5 18 -9 40 -10 38 -3 40 -2 40 27
0 28 -2 30 -40 30 -33 0 -40 -3 -40 -20z m40 0 c0 -5 -7 -7 -15 -4 -8 4 -15 8
-15 10 0 2 7 4 15 4 8 0 15 -4 15 -10z"/>
<path d="M3437 3294 c-5 -29 17 -44 36 -25 9 10 8 16 -7 27 -19 13 -19 14 6
14 22 0 25 -4 21 -27 l-4 -28 15 25 c22 36 20 40 -23 40 -34 0 -39 -3 -44 -26z"/>
<path d="M3590 3300 c0 -11 0 -23 0 -27 0 -5 18 -9 40 -10 38 -3 40 -2 40 27
0 28 -2 30 -40 30 -33 0 -40 -3 -40 -20z m40 0 c0 -5 -7 -7 -15 -4 -8 4 -15 8
-15 10 0 2 7 4 15 4 8 0 15 -4 15 -10z"/>
<path d="M3788 3295 c-6 -29 2 -34 47 -32 25 2 30 6 30 27 0 22 -5 25 -36 28
-32 3 -37 0 -41 -23z m42 5 c0 -5 -7 -7 -15 -4 -8 4 -15 8 -15 10 0 2 7 4 15
4 8 0 15 -4 15 -10z"/>
<path d="M1262 3185 c-6 -14 -8 -25 -4 -25 4 -1 24 -3 44 -6 36 -5 38 -4 36
21 -2 15 -8 30 -16 32 -20 8 -25 -3 -13 -26 10 -17 9 -20 -4 -15 -8 4 -15 15
-15 25 0 27 -15 24 -28 -6z"/>
<path d="M3930 3160 c0 -25 3 -28 40 -28 38 -1 40 1 40 28 0 27 -2 29 -40 28
-37 0 -40 -3 -40 -28z"/>
<path d="M2613 3174 c3 -4 2 -15 -4 -25 -8 -16 -6 -19 13 -19 17 0 19 3 9 9
-9 6 -10 11 -2 15 17 11 13 26 -6 26 -9 0 -13 -3 -10 -6z"/>
<path d="M1700 3150 c-24 -24 -26 -53 -4 -74 18 -19 65 -21 82 -4 18 18 14 63
-6 81 -25 22 -48 21 -72 -3z m33 -7 c0 -4 11 -19 24 -33 l23 -25 -26 -9 c-32
-10 -66 16 -46 36 7 7 12 21 12 32 0 18 10 18 13 -1z"/>
<path d="M1710 3101 c0 -6 4 -12 9 -15 13 -8 42 4 35 15 -7 12 -44 12 -44 0z"/>
<path d="M2897 3152 c-20 -22 -22 -63 -5 -80 17 -17 64 -15 82 4 22 21 20 50
-4 74 -25 25 -52 26 -73 2z m62 -53 c7 -13 10 -21 6 -17 -5 4 -14 3 -21 -3
-20 -16 -44 -3 -43 23 l0 23 10 -23 c9 -24 29 -26 37 -4 2 7 -3 12 -12 12 -11
0 -16 9 -16 28 0 26 1 26 13 6 6 -12 18 -32 26 -45z"/>
<path d="M1162 3095 c-6 -14 -8 -25 -4 -25 4 -1 25 -3 47 -6 26 -3 35 -2 26 4
-9 7 -10 12 -2 16 18 12 12 36 -9 36 -11 0 -20 -4 -20 -10 0 -5 5 -10 11 -10
5 0 7 -4 4 -10 -10 -17 -25 -11 -25 10 0 28 -14 25 -28 -5z"/>
<path d="M2614 3015 c0 -49 1 -71 3 -48 2 23 2 64 0 90 -2 26 -3 8 -3 -42z"/>
<path d="M4020 3068 c0 -23 4 -29 18 -26 9 2 16 11 16 21 -1 9 2 14 7 11 5 -3
9 -12 9 -20 0 -8 5 -14 10 -14 6 0 10 13 10 28 0 25 -4 28 -35 29 -32 1 -35
-1 -35 -29z"/>
<path d="M377 3073 c-14 -14 -6 -24 14 -18 18 6 19 5 10 -13 -6 -12 -16 -24
-21 -27 -25 -15 -5 -25 50 -25 33 0 60 4 60 10 0 6 -5 10 -10 10 -6 0 -6 7 1
19 7 10 9 26 6 35 -8 20 -47 21 -47 1 0 -9 6 -12 15 -9 20 8 19 -3 -2 -30 -10
-12 -26 -20 -36 -18 -15 3 -16 6 -3 24 8 11 12 27 9 34 -5 14 -35 19 -46 7z"/>
<path d="M517 3051 c-22 -37 -21 -41 3 -41 11 0 20 -6 20 -12 0 -10 2 -10 8
-1 9 15 3 83 -7 83 -4 0 -14 -13 -24 -29z m23 -16 c0 -8 -4 -15 -10 -15 -5 0
-7 7 -4 15 4 8 8 15 10 15 2 0 4 -7 4 -15z"/>
<path d="M4747 3073 c-14 -14 -6 -24 14 -18 18 6 19 5 10 -13 -6 -12 -16 -24
-21 -27 -20 -12 -9 -25 20 -25 17 0 30 5 30 10 0 6 -7 10 -16 10 -13 0 -14 2
0 21 8 12 12 28 9 35 -5 14 -35 19 -46 7z"/>
<path d="M4817 3074 c-12 -12 -8 -24 6 -19 8 3 13 -6 14 -26 2 -26 0 -29 -12
-19 -12 10 -15 9 -15 -4 0 -12 7 -16 23 -14 19 3 22 9 22 43 0 28 -5 41 -15
43 -9 1 -19 0 -23 -4z"/>
<path d="M4879 3073 c-1 -4 -2 -24 -2 -43 -2 -31 1 -35 23 -35 23 0 25 4 25
40 0 34 -3 40 -22 43 -13 2 -23 0 -24 -5z m31 -59 c0 -8 -4 -12 -10 -9 -5 3
-10 10 -10 16 0 5 5 9 10 9 6 0 10 -7 10 -16z"/>
<path d="M607 2972 c-25 -27 -22 -78 5 -96 12 -9 30 -16 38 -16 27 0 60 39 60
69 0 54 -68 82 -103 43z m37 -16 c-3 -7 2 -16 10 -19 8 -3 20 -16 26 -29 9
-19 9 -21 -2 -7 -7 9 -24 19 -36 24 -20 6 -23 4 -20 -12 2 -10 11 -17 21 -17
9 1 17 -2 17 -7 0 -15 -27 -10 -41 7 -10 12 -10 20 -1 35 7 10 12 26 12 34 0
9 4 14 10 10 5 -3 7 -12 4 -19z"/>
<path d="M1048 2985 c-8 -8 3 -55 13 -55 5 0 9 14 9 30 0 28 -9 38 -22 25z"/>
<path d="M1095 2980 c-3 -5 -3 -15 1 -22 4 -7 3 -8 -4 -4 -7 4 -12 3 -12 -2 0
-8 22 -22 36 -22 2 0 4 14 4 30 0 29 -13 40 -25 20z"/>
<path d="M4130 2960 c0 -26 3 -28 42 -28 26 -1 37 2 29 7 -9 6 -10 11 -2 15
26 16 10 35 -29 34 -37 0 -40 -3 -40 -28z m60 6 c0 -11 -19 -15 -25 -6 -3 5 1
10 9 10 9 0 16 -2 16 -4z"/>
<path d="M4546 2968 c-22 -31 -20 -64 6 -88 29 -27 54 -25 83 5 30 29 31 45 4
79 -26 33 -71 35 -93 4z m65 -41 c19 -18 27 -43 10 -32 -5 3 -12 1 -16 -5 -10
-16 -33 -12 -45 9 -7 15 -6 23 5 35 8 8 16 23 16 33 1 16 2 15 6 -2 3 -11 14
-28 24 -38z"/>
<path d="M4572 2912 c4 -19 29 -23 35 -6 2 6 -6 14 -17 17 -16 4 -20 1 -18
-11z"/>
<path d="M1542 2928 c-15 -15 -16 -32 -2 -23 6 4 10 -5 10 -19 0 -14 5 -26 10
-26 6 0 10 18 10 40 0 41 -7 49 -28 28z"/>
<path d="M1595 2929 c-4 -6 -4 -13 0 -17 3 -3 10 0 15 8 8 13 10 13 10 -1 0
-9 -7 -22 -15 -29 -22 -18 -18 -30 10 -30 14 0 25 5 25 10 0 6 -5 10 -12 10
-9 0 -9 3 0 12 19 19 15 48 -7 48 -11 0 -23 -5 -26 -11z"/>
<path d="M1654 2926 c-11 -29 1 -61 24 -64 18 -3 22 1 22 22 0 16 -6 26 -15
26 -8 0 -15 4 -15 10 0 5 7 7 15 4 8 -4 15 -1 15 5 0 16 -40 13 -46 -3z m31
-35 c3 -5 1 -12 -5 -16 -5 -3 -10 1 -10 9 0 18 6 21 15 7z"/>
<path d="M1942 2908 c-15 -15 -16 -32 -2 -23 6 4 10 -5 10 -19 0 -14 5 -26 10
-26 6 0 10 18 10 40 0 41 -7 49 -28 28z"/>
<path d="M1995 2909 c-4 -6 -4 -13 0 -17 3 -3 10 0 15 8 8 13 10 13 10 -1 0
-9 -7 -22 -15 -29 -22 -18 -18 -30 10 -30 14 0 25 5 25 10 0 6 -5 10 -12 10
-9 0 -9 3 0 12 19 19 15 48 -7 48 -11 0 -23 -5 -26 -11z"/>
<path d="M2057 2914 c-13 -13 -7 -44 8 -44 8 0 15 -4 15 -10 0 -5 -7 -7 -15
-4 -8 4 -15 1 -15 -6 0 -6 10 -10 23 -8 18 2 22 9 22 38 0 33 -20 51 -38 34z
m20 -26 c-3 -8 -6 -5 -6 6 -1 11 2 17 5 13 3 -3 4 -12 1 -19z"/>
<path d="M2242 2908 c-15 -15 -16 -32 -2 -23 6 4 10 -5 10 -19 0 -14 5 -26 10
-26 6 0 10 18 10 40 0 41 -7 49 -28 28z"/>
<path d="M2294 2909 c-5 -8 -2 -11 8 -7 11 5 15 -1 16 -22 0 -22 -3 -27 -15
-23 -11 4 -14 2 -9 -5 4 -7 16 -12 27 -12 16 0 19 6 16 37 -2 39 -27 57 -43
32z"/>
<path d="M2354 2906 c-11 -30 0 -61 24 -64 21 -3 23 0 20 35 -3 40 -32 59 -44
29z m23 -43 c-3 -10 -5 -2 -5 17 0 19 2 27 5 18 2 -10 2 -26 0 -35z"/>
<path d="M2562 2908 c-15 -15 -16 -32 -2 -23 6 4 10 -5 10 -19 0 -14 5 -26 10
-26 6 0 10 18 10 40 0 41 -7 49 -28 28z"/>
<path d="M2614 2909 c-5 -8 -2 -11 8 -7 11 5 15 -1 16 -22 0 -22 -3 -27 -15
-23 -11 4 -14 2 -9 -5 4 -7 16 -12 27 -12 16 0 19 6 16 37 -2 39 -27 57 -43
32z"/>
<path d="M2682 2908 c-15 -15 -16 -32 -2 -23 6 4 10 -5 10 -19 0 -14 5 -26 10
-26 6 0 10 18 10 40 0 41 -7 49 -28 28z"/>
<path d="M2862 2908 c-15 -15 -16 -32 -2 -23 6 4 10 -5 10 -19 0 -14 5 -26 10
-26 6 0 10 18 10 40 0 41 -7 49 -28 28z"/>
<path d="M2914 2909 c-5 -8 -2 -11 8 -7 11 5 15 -1 16 -22 0 -22 -3 -27 -15
-23 -11 4 -14 2 -9 -5 4 -7 16 -12 27 -12 16 0 19 6 16 37 -2 39 -27 57 -43
32z"/>
<path d="M2975 2909 c-4 -6 -4 -13 0 -17 3 -3 10 0 15 8 8 13 10 13 10 -1 0
-9 -7 -22 -15 -29 -22 -18 -18 -30 10 -30 14 0 25 5 25 10 0 6 -5 10 -12 10
-9 0 -9 3 0 12 19 19 15 48 -7 48 -11 0 -23 -5 -26 -11z"/>
<path d="M3172 2908 c-15 -15 -16 -32 -2 -23 6 4 10 -5 10 -19 0 -14 5 -26 10
-26 6 0 10 18 10 40 0 41 -7 49 -28 28z"/>
<path d="M3224 2909 c-5 -8 -2 -11 8 -7 11 5 15 -1 16 -22 0 -22 -3 -27 -15
-23 -11 4 -14 2 -9 -5 4 -7 16 -12 27 -12 16 0 19 6 16 37 -2 39 -27 57 -43
32z"/>
<path d="M3284 2909 c-5 -8 -2 -11 8 -7 11 5 15 -1 16 -22 0 -22 -3 -27 -15
-23 -11 4 -14 2 -9 -5 4 -7 16 -12 27 -12 16 0 19 6 16 37 -2 39 -27 57 -43
32z"/>
<path d="M3562 2908 c-15 -15 -16 -32 -2 -23 6 4 10 -5 10 -19 0 -14 5 -26 10
-26 6 0 10 18 10 40 0 41 -7 49 -28 28z"/>
<path d="M3614 2909 c-5 -8 -2 -11 8 -7 11 5 15 -1 16 -22 0 -22 -3 -27 -15
-23 -11 4 -14 2 -9 -5 4 -7 16 -12 27 -12 16 0 19 6 16 37 -2 39 -27 57 -43
32z"/>
<path d="M3674 2906 c-11 -29 1 -61 24 -64 18 -3 22 1 22 22 0 16 -6 26 -15
26 -8 0 -15 4 -15 10 0 5 7 7 15 4 8 -4 15 -1 15 5 0 16 -40 13 -46 -3z m31
-35 c3 -5 1 -12 -5 -16 -5 -3 -10 1 -10 9 0 18 6 21 15 7z"/>
<path d="M4013 2894 c3 -4 2 -15 -4 -25 -8 -16 -6 -19 13 -19 17 0 19 3 9 9
-9 6 -10 11 -2 15 17 11 13 26 -6 26 -9 0 -13 -3 -10 -6z"/>
<path d="M4230 2871 c0 -27 3 -29 40 -29 38 -1 40 1 37 26 -3 23 -9 27 -40 29
-34 2 -37 0 -37 -26z m54 -7 c5 -14 4 -15 -9 -4 -17 14 -19 20 -6 20 5 0 12
-7 15 -16z"/>
<path d="M938 2885 c-8 -8 3 -55 13 -55 5 0 9 14 9 30 0 28 -9 38 -22 25z"/>
<path d="M970 2881 c0 -5 5 -13 10 -16 6 -3 10 -11 10 -16 0 -6 -4 -7 -10 -4
-5 3 -10 1 -10 -5 0 -6 8 -10 18 -8 23 5 23 52 -1 56 -9 2 -17 -1 -17 -7z"/>
<path d="M3857 2695 c-76 -79 -143 -144 -150 -142 -6 1 -13 -7 -15 -18 -2 -15
3 -21 17 -22 14 -1 18 3 14 14 -4 10 27 49 93 116 130 134 189 197 184 197 -3
0 -67 -65 -143 -145z"/>
<path d="M2614 2725 c0 -55 1 -76 3 -47 2 29 2 74 0 100 -2 26 -3 2 -3 -53z"/>
<path d="M4330 2762 c0 -28 2 -29 40 -28 37 1 40 3 40 28 0 30 -17 38 -26 13
-7 -18 -25 -20 -21 -3 1 6 -6 14 -15 16 -14 3 -18 -3 -18 -26z"/>
<path d="M247 2763 c-14 -14 -6 -24 14 -18 18 6 19 5 10 -13 -6 -12 -16 -24
-21 -27 -25 -15 -5 -25 50 -25 33 0 60 4 60 10 0 6 -5 10 -10 10 -6 0 -6 7 1
19 7 10 9 26 6 35 -8 20 -47 21 -47 1 0 -9 6 -12 15 -9 20 8 19 -3 -2 -30 -10
-12 -26 -20 -36 -18 -15 3 -16 6 -3 24 8 11 12 27 9 34 -5 14 -35 19 -46 7z"/>
<path d="M380 2756 c0 -8 7 -21 15 -30 21 -20 20 -43 0 -26 -9 7 -18 10 -22 6
-11 -10 13 -28 33 -24 15 2 19 12 19 43 0 34 -3 40 -22 43 -15 2 -23 -2 -23
-12z"/>
<path d="M818 2765 c-8 -8 3 -55 13 -55 5 0 9 14 9 30 0 28 -9 38 -22 25z"/>
<path d="M850 2759 c0 -5 5 -7 10 -4 6 3 10 2 10 -4 0 -5 -4 -13 -10 -16 -18
-11 -11 -25 13 -25 16 0 18 3 8 9 -9 6 -10 11 -2 15 18 12 12 36 -9 36 -11 0
-20 -5 -20 -11z"/>
<path d="M4807 2763 c-14 -14 -6 -24 14 -18 18 6 19 5 10 -13 -6 -12 -16 -24
-21 -27 -20 -12 -9 -25 20 -25 17 0 30 5 30 10 0 6 -7 10 -16 10 -13 0 -14 2
0 21 8 12 12 28 9 35 -5 14 -35 19 -46 7z"/>
<path d="M4877 2764 c-12 -12 -8 -24 6 -19 8 3 13 -6 14 -26 2 -26 0 -29 -12
-19 -12 10 -15 9 -15 -4 0 -12 7 -16 23 -14 19 3 22 9 22 43 0 28 -5 41 -15
43 -9 1 -19 0 -23 -4z"/>
<path d="M4937 2763 c-15 -14 -6 -44 16 -53 l22 -9 -23 0 c-28 -1 -19 -21 8
-21 22 0 36 37 25 69 -6 20 -34 28 -48 14z m33 -22 c0 -6 -4 -13 -10 -16 -5
-3 -10 1 -10 9 0 9 5 16 10 16 6 0 10 -4 10 -9z"/>
<path d="M1162 2698 c-15 -15 -16 -32 -2 -23 6 4 10 -5 10 -19 0 -14 5 -26 10
-26 6 0 10 18 10 40 0 41 -7 49 -28 28z"/>
<path d="M1215 2699 c-4 -6 -4 -13 0 -17 3 -3 10 0 15 8 8 13 10 13 10 -1 0
-9 -7 -22 -15 -29 -22 -18 -18 -30 10 -30 14 0 25 5 25 10 0 6 -5 10 -12 10
-9 0 -9 3 0 12 19 19 15 48 -7 48 -11 0 -23 -5 -26 -11z"/>
<path d="M1286 2688 c-22 -31 -20 -45 6 -52 30 -7 37 2 31 42 -6 38 -16 40
-37 10z"/>
<path d="M711 2640 c-17 -10 -7 -40 13 -40 7 0 16 6 19 14 8 19 -15 37 -32 26z"/>
<path d="M4390 2600 c0 -25 3 -28 40 -28 33 -1 40 3 40 19 0 10 -6 19 -12 19
-9 0 -8 3 2 10 10 6 2 9 -28 8 -39 0 -42 -2 -42 -28z"/>
<path d="M798 2615 c-8 -8 3 -55 13 -55 5 0 9 14 9 30 0 28 -9 38 -22 25z"/>
<path d="M838 2615 c-8 -8 3 -55 13 -55 5 0 9 14 9 30 0 28 -9 38 -22 25z"/>
<path d="M2606 2603 c-13 -13 -5 -39 13 -40 14 -1 17 3 14 18 -6 22 -17 31
-27 22z"/>
<path d="M702 2555 c0 -30 2 -34 14 -24 12 10 13 9 8 -6 -5 -12 -3 -16 6 -13
8 2 14 19 14 39 0 27 -5 35 -21 37 -18 3 -21 -2 -21 -33z"/>
<path d="M3922 2528 c-15 -15 -16 -32 -2 -23 6 4 10 -5 10 -19 0 -14 5 -26 10
-26 6 0 10 18 10 40 0 41 -7 49 -28 28z"/>
<path d="M3974 2529 c-5 -8 -2 -11 8 -7 11 5 15 -1 16 -22 0 -22 -3 -27 -15
-23 -11 4 -14 2 -9 -5 4 -7 16 -12 27 -12 16 0 19 6 16 37 -2 39 -27 57 -43
32z"/>
<path d="M4037 2533 c-2 -4 -4 -21 -3 -38 1 -23 6 -31 24 -33 20 -3 22 0 20
35 -2 25 -9 39 -20 41 -9 2 -18 -1 -21 -5z"/>
<path d="M700 2469 c0 -16 5 -29 13 -29 8 0 8 -3 -2 -9 -17 -11 -7 -41 13 -41
17 0 29 27 16 35 -5 3 -7 12 -4 19 3 8 -2 16 -13 19 -16 4 -16 5 0 6 23 1 22
17 -3 24 -17 4 -20 0 -20 -24z"/>
<path d="M3637 2493 c-3 -5 -1 -17 4 -28 7 -17 8 -17 8 8 1 27 -4 34 -12 20z"/>
<path d="M3660 2475 c0 -16 6 -25 15 -25 9 0 15 9 15 25 0 16 -6 25 -15 25 -9
0 -15 -9 -15 -25z m17 -7 c-3 -8 -6 -5 -6 6 -1 11 2 17 5 13 3 -3 4 -12 1 -19z"/>
<path d="M247 2473 c-14 -14 -6 -24 14 -18 18 6 19 5 10 -13 -6 -12 -16 -24
-21 -27 -25 -15 -5 -25 50 -25 33 0 60 4 60 10 0 6 -5 10 -10 10 -6 0 -6 7 1
19 7 10 9 26 6 35 -8 20 -47 21 -47 1 0 -9 6 -12 15 -9 20 8 19 -3 -2 -30 -10
-12 -26 -20 -36 -18 -15 3 -16 6 -3 24 8 11 12 27 9 34 -5 14 -35 19 -46 7z"/>
<path d="M377 2473 c-14 -13 -6 -24 13 -18 11 3 20 2 20 -3 0 -5 -9 -17 -20
-27 -28 -25 -25 -35 10 -35 17 0 30 5 30 10 0 6 -7 10 -17 10 -15 0 -14 2 2
20 9 10 15 26 12 35 -6 15 -38 21 -50 8z"/>
<path d="M4632 2468 c-18 -18 -14 -73 6 -91 10 -10 30 -17 44 -17 51 0 78 69
40 103 -22 20 -73 22 -90 5z m43 -7 c-3 -5 6 -22 21 -38 l26 -28 -31 -9 c-41
-12 -62 5 -43 34 6 11 12 27 12 35 0 8 5 15 11 15 5 0 8 -4 4 -9z"/>
<path d="M4650 2405 c0 -11 7 -15 23 -13 12 2 22 8 22 13 0 6 -10 11 -22 13
-16 2 -23 -2 -23 -13z"/>
<path d="M4807 2473 c-14 -14 -6 -24 14 -18 18 6 19 5 10 -13 -6 -12 -16 -24
-21 -27 -20 -12 -9 -25 20 -25 17 0 30 5 30 10 0 14 37 12 43 -2 4 -10 8 -9
16 2 9 12 13 13 20 2 4 -8 17 -12 27 -10 25 4 33 75 9 84 -19 8 -43 -11 -48
-39 -3 -15 -5 -12 -6 11 -1 41 -15 41 -43 -3 -13 -19 -29 -35 -36 -35 -10 0
-10 5 2 21 8 12 12 28 9 35 -5 14 -35 19 -46 7z m163 -44 c0 -17 -4 -28 -10
-24 -5 3 -10 17 -10 31 0 13 5 24 10 24 6 0 10 -14 10 -31z m-70 1 c0 -5 -5
-10 -11 -10 -5 0 -7 5 -4 10 3 6 8 10 11 10 2 0 4 -4 4 -10z"/>
<path d="M798 2465 c-8 -8 3 -55 13 -55 5 0 9 14 9 30 0 28 -9 38 -22 25z"/>
<path d="M830 2440 c0 -25 4 -31 18 -28 11 2 17 12 17 28 0 16 -6 26 -17 28
-14 3 -18 -3 -18 -28z"/>
<path d="M4390 2440 c0 -25 3 -28 40 -28 38 -1 40 1 40 28 0 27 -2 29 -40 28
-37 0 -40 -3 -40 -28z"/>
<path d="M3511 2343 l-107 -108 100 95 c56 52 108 100 116 107 8 7 11 13 6 13
-4 0 -56 -48 -115 -107z"/>
<path d="M1032 2428 c-15 -15 -16 -32 -2 -23 6 4 10 -5 10 -19 0 -14 5 -26 10
-26 6 0 10 18 10 40 0 41 -7 49 -28 28z"/>
<path d="M1085 2429 c-4 -6 -4 -13 0 -17 3 -3 10 0 15 8 8 13 10 13 10 -1 0
-9 -7 -22 -15 -29 -22 -18 -18 -30 10 -30 14 0 25 5 25 10 0 6 -5 10 -12 10
-9 0 -9 3 0 12 19 19 15 48 -7 48 -11 0 -23 -5 -26 -11z"/>
<path d="M1145 2429 c-4 -6 -4 -13 0 -17 3 -3 10 0 15 8 8 13 10 13 10 -1 0
-9 -7 -22 -15 -29 -22 -18 -18 -30 10 -30 14 0 25 5 25 10 0 6 -5 10 -12 10
-9 0 -9 3 0 12 19 19 15 48 -7 48 -11 0 -23 -5 -26 -11z"/>
<path d="M681 2375 c0 -16 3 -25 7 -19 4 7 18 14 32 17 l25 4 -27 2 c-14 0
-29 7 -31 14 -3 6 -6 -1 -6 -18z"/>
<path d="M4167 2382 c-33 -36 -8 -92 40 -92 42 0 71 68 41 98 -18 18 -63 14
-81 -6z m38 -2 c-3 -5 6 -21 21 -35 30 -28 25 -33 -10 -9 -16 10 -26 12 -31 4
-3 -5 4 -14 17 -19 23 -10 23 -10 1 -10 -12 -1 -25 4 -28 9 -7 12 16 70 28 70
5 0 5 -4 2 -10z"/>
<path d="M1480 2080 l0 -290 175 0 175 0 0 290 0 290 -175 0 -175 0 0 -290z
m227 174 c3 -9 2 -24 -4 -33 -8 -12 -5 -18 11 -26 25 -12 29 -60 6 -61 -8 0
-25 -4 -38 -8 -14 -5 -28 -3 -37 4 -15 12 -18 70 -3 70 4 0 3 8 -3 19 -7 10
-9 26 -6 35 9 22 65 22 74 0z m0 -191 c-2 -56 -3 -58 -31 -63 -16 -3 -31 -11
-34 -18 -3 -11 0 -11 16 -1 17 10 23 10 36 0 22 -19 20 -58 -4 -71 -16 -8 -20
-8 -20 4 0 8 5 18 10 21 13 8 13 25 0 25 -6 0 -15 -12 -20 -26 -7 -19 -16 -25
-33 -22 -29 4 -36 47 -10 65 15 11 15 15 4 22 -12 8 -11 12 4 28 13 13 20 14
23 5 4 -14 42 -16 42 -2 0 6 -14 13 -31 17 -25 5 -30 10 -27 32 2 21 10 27 38
32 19 4 36 7 37 8 1 0 1 -25 0 -56z"/>
<path d="M1650 2160 c0 -5 6 -10 14 -10 8 0 18 5 21 10 3 6 -3 10 -14 10 -12
0 -21 -4 -21 -10z"/>
<path d="M1620 1944 c0 -8 5 -12 10 -9 6 3 10 10 10 16 0 5 -4 9 -10 9 -5 0
-10 -7 -10 -16z"/>
<path d="M800 2300 c0 -32 23 -42 34 -15 8 21 -3 45 -20 45 -9 0 -14 -11 -14
-30z"/>
<path d="M4390 2298 c0 -23 4 -29 18 -26 9 2 17 12 17 22 0 11 5 21 11 23 7 2
10 -6 7 -24 l-4 -28 15 25 c22 36 20 39 -24 38 -38 0 -40 -2 -40 -30z"/>
<path d="M680 2275 c0 -33 4 -45 15 -45 8 0 15 -4 15 -10 0 -5 -7 -10 -15 -10
-8 0 -15 -4 -15 -10 0 -12 2 -12 34 0 34 12 33 26 -1 38 l-28 10 28 1 c20 1
27 6 27 21 0 11 -4 20 -10 20 -5 0 -10 7 -10 15 0 8 -9 15 -20 15 -17 0 -20
-7 -20 -45z m30 25 c0 -5 -5 -10 -11 -10 -5 0 -7 5 -4 10 3 6 8 10 11 10 2 0
4 -4 4 -10z"/>
<path d="M2090 2264 c0 -10 5 -14 15 -10 14 5 14 4 0 -16 -21 -30 -19 -38 8
-38 21 0 24 5 25 40 2 36 0 40 -23 40 -16 0 -25 -6 -25 -16z"/>
<path d="M2740 2254 c0 -11 5 -14 17 -10 16 6 16 6 0 -12 -21 -23 -22 -38 -2
-46 23 -8 42 19 37 53 -3 25 -9 31 -28 31 -15 0 -24 -6 -24 -16z"/>
<path d="M3377 2233 c-3 -5 -1 -17 4 -28 7 -17 8 -17 8 8 1 27 -4 34 -12 20z"/>
<path d="M800 2159 c0 -22 4 -30 16 -27 8 2 15 6 15 11 -1 4 -1 16 -1 27 0 11
-7 20 -15 20 -10 0 -15 -10 -15 -31z"/>
<path d="M4390 2160 c0 -25 3 -28 40 -28 38 -1 40 1 40 28 0 27 -2 29 -40 28
-37 0 -40 -3 -40 -28z"/>
<path d="M680 2151 c0 -5 5 -11 12 -13 7 -3 11 -19 10 -41 -2 -31 1 -37 18
-37 25 0 27 17 3 23 -15 4 -15 5 -2 6 11 1 16 12 17 36 1 32 -1 35 -28 35 -17
0 -30 -4 -30 -9z"/>
<path d="M3050 2070 l0 -70 120 0 120 0 0 70 0 70 -120 0 -120 0 0 -70z m70
18 c0 -9 3 -9 12 0 7 7 22 12 35 12 20 0 23 -5 23 -35 0 -28 -4 -35 -20 -35
-11 0 -20 6 -20 13 0 8 -3 8 -8 2 -4 -6 -17 -12 -29 -12 -20 -2 -23 3 -23 33
0 24 5 34 15 34 8 0 15 -5 15 -12z m125 -32 c0 -17 -6 -23 -21 -23 -16 0 -21
6 -21 23 0 18 5 24 21 24 15 0 21 -6 21 -24z"/>
<path d="M1082 2118 c-15 -15 -16 -32 -2 -23 6 4 10 -5 10 -19 0 -14 5 -26 10
-26 6 0 10 18 10 40 0 41 -7 49 -28 28z"/>
<path d="M1135 2119 c-4 -6 -4 -13 0 -17 3 -3 10 0 15 8 8 13 10 13 10 -1 0
-9 -7 -22 -15 -29 -22 -18 -18 -30 10 -30 14 0 25 5 25 10 0 6 -5 10 -12 10
-9 0 -9 3 0 12 19 19 15 48 -7 48 -11 0 -23 -5 -26 -11z"/>
<path d="M1202 2118 c-15 -15 -16 -32 -2 -23 6 4 10 -5 10 -19 0 -14 5 -26 10
-26 6 0 10 18 10 40 0 41 -7 49 -28 28z"/>
<path d="M3982 2118 c-15 -15 -16 -32 -2 -23 6 4 10 -5 10 -19 0 -14 5 -26 10
-26 6 0 10 18 10 40 0 41 -7 49 -28 28z"/>
<path d="M4034 2116 c-11 -30 0 -61 24 -64 21 -3 23 0 20 35 -3 40 -32 59 -44
29z m23 -43 c-3 -10 -5 -2 -5 17 0 19 2 27 5 18 2 -10 2 -26 0 -35z"/>
<path d="M4102 2118 c-15 -15 -16 -32 -2 -23 6 4 10 -5 10 -19 0 -14 5 -26 10
-26 6 0 10 18 10 40 0 41 -7 49 -28 28z"/>
<path d="M247 2113 c-14 -14 -6 -24 14 -18 18 6 19 5 10 -13 -6 -12 -16 -24
-21 -27 -25 -15 -5 -25 50 -25 33 0 60 4 60 10 0 6 -5 10 -10 10 -6 0 -6 7 1
19 7 10 9 26 6 35 -8 20 -47 21 -47 1 0 -9 6 -12 15 -9 20 8 19 -3 -2 -30 -10
-12 -26 -20 -36 -18 -15 3 -16 6 -3 24 8 11 12 27 9 34 -5 14 -35 19 -46 7z"/>
<path d="M388 2106 c-22 -16 -23 -27 -4 -20 11 4 16 -4 19 -28 3 -26 4 -23 5
15 1 26 1 47 0 47 -2 0 -11 -7 -20 -14z"/>
<path d="M3820 2095 c0 -20 4 -26 18 -23 9 2 17 12 17 23 0 11 -8 21 -17 23
-14 3 -18 -3 -18 -23z m17 -7 c-3 -8 -6 -5 -6 6 -1 11 2 17 5 13 3 -3 4 -12 1
-19z"/>
<path d="M4263 2114 c3 -4 2 -15 -4 -25 -8 -16 -6 -19 13 -19 17 0 19 3 9 9
-9 6 -10 11 -2 15 17 11 13 26 -6 26 -9 0 -13 -3 -10 -6z"/>
<path d="M4807 2113 c-14 -14 -6 -24 14 -18 18 6 19 5 10 -13 -6 -12 -16 -24
-21 -27 -20 -12 -9 -25 20 -25 17 0 30 5 30 10 0 6 -7 10 -16 10 -13 0 -14 2
0 21 8 12 12 28 9 35 -5 14 -35 19 -46 7z"/>
<path d="M4874 2106 c-3 -8 -4 -27 -2 -43 4 -38 33 -42 50 -7 19 40 36 41 41
2 3 -26 4 -23 5 15 2 45 1 47 -18 35 -11 -7 -20 -17 -21 -23 0 -5 -4 0 -9 13
-10 25 -38 30 -46 8z m28 -48 c-10 -22 -11 -21 -11 12 -1 26 2 31 11 22 8 -8
8 -17 0 -34z"/>
<path d="M63 2085 c0 -14 6 -21 20 -22 15 -2 17 1 9 9 -8 8 -8 15 -1 24 8 10
6 13 -9 11 -13 -1 -19 -8 -19 -22z"/>
<path d="M586 2094 c-10 -25 -7 -30 14 -30 13 0 19 5 15 14 -3 7 -5 18 -5 23
0 15 -17 10 -24 -7z"/>
<path d="M4596 2094 c-10 -25 -7 -30 14 -30 13 0 19 5 15 14 -3 7 -5 18 -5 23
0 15 -17 10 -24 -7z"/>
<path d="M5133 2085 c0 -14 6 -21 20 -22 15 -2 17 1 9 9 -8 8 -8 15 -1 24 8
10 6 13 -9 11 -13 -1 -19 -8 -19 -22z"/>
<path d="M3893 2093 c15 -2 37 -2 50 0 12 2 0 4 -28 4 -27 0 -38 -2 -22 -4z"/>
<path d="M4163 2093 c15 -2 39 -2 55 0 15 2 2 4 -28 4 -30 0 -43 -2 -27 -4z"/>
<path d="M4688 2083 c18 -2 45 -2 60 0 15 2 0 4 -33 4 -33 0 -45 -2 -27 -4z"/>
<path d="M5033 2083 c15 -2 37 -2 50 0 12 2 0 4 -28 4 -27 0 -38 -2 -22 -4z"/>
<path d="M138 2073 c17 -2 47 -2 65 0 17 2 3 4 -33 4 -36 0 -50 -2 -32 -4z"/>
<path d="M468 2073 c17 -2 47 -2 65 0 17 2 3 4 -33 4 -36 0 -50 -2 -32 -4z"/>
<path d="M700 2030 c0 -11 -4 -20 -10 -20 -5 0 -10 -4 -10 -10 0 -18 57 -11
62 8 7 26 -2 42 -23 42 -12 0 -19 -7 -19 -20z m23 -5 c-3 -9 -8 -14 -10 -11
-3 3 -2 9 2 15 9 16 15 13 8 -4z"/>
<path d="M807 2042 c8 -5 9 -13 3 -22 -12 -18 -13 -30 -2 -30 4 0 13 14 19 30
10 28 10 30 -10 30 -14 0 -18 -3 -10 -8z"/>
<path d="M4416 2032 c-7 -12 5 -52 15 -52 5 0 9 14 9 30 0 28 -13 40 -24 22z"/>
<path d="M703 1959 c3 -12 0 -19 -9 -19 -8 0 -14 -4 -14 -10 0 -5 14 -10 30
-10 23 0 30 4 30 20 0 11 0 23 0 28 0 4 -9 8 -21 8 -15 1 -19 -3 -16 -17z"/>
<path d="M2103 1943 c-7 -2 -13 -11 -13 -19 0 -9 5 -12 10 -9 6 4 10 -5 10
-19 0 -14 5 -26 10 -26 6 0 10 18 10 40 0 40 -3 43 -27 33z"/>
<path d="M2746 1899 c-21 -35 -20 -36 19 -41 19 -2 30 1 29 10 -1 6 -2 23 -2
37 -3 34 -24 31 -46 -6z"/>
<path d="M3367 1913 c-3 -5 -1 -17 4 -28 7 -17 8 -17 8 8 1 27 -4 34 -12 20z"/>
<path d="M711 1890 c-17 -10 -7 -40 13 -40 7 0 16 6 19 14 8 19 -15 37 -32 26z"/>
<path d="M800 1870 c0 -25 4 -31 18 -28 23 5 23 52 -1 56 -13 3 -17 -3 -17
-28z"/>
<path d="M4410 1889 c0 -5 5 -7 10 -4 16 10 12 -7 -7 -27 -15 -17 -15 -18 13
-17 16 0 23 3 16 6 -10 4 -10 8 -2 19 7 7 9 18 5 24 -8 13 -35 13 -35 -1z"/>
<path d="M3470 1775 c47 -47 87 -85 90 -85 2 0 -33 38 -80 85 -47 47 -87 85
-90 85 -2 0 33 -38 80 -85z"/>
<path d="M1032 1838 c-15 -15 -16 -32 -2 -23 6 4 10 -5 10 -19 0 -14 5 -26 10
-26 6 0 10 18 10 40 0 41 -7 49 -28 28z"/>
<path d="M1085 1839 c-4 -6 -4 -13 0 -17 3 -3 10 0 15 8 8 13 10 13 10 -1 0
-9 -7 -22 -15 -29 -22 -18 -18 -30 10 -30 14 0 25 5 25 10 0 6 -5 10 -12 10
-9 0 -9 3 0 12 19 19 15 48 -7 48 -11 0 -23 -5 -26 -11z"/>
<path d="M1144 1836 c-11 -30 0 -61 24 -64 21 -3 23 0 20 35 -3 40 -32 59 -44
29z m23 -43 c-3 -10 -5 -2 -5 17 0 19 2 27 5 18 2 -10 2 -26 0 -35z"/>
<path d="M700 1815 c0 -14 7 -25 18 -28 16 -4 16 -5 0 -6 -13 -1 -18 -10 -18
-31 0 -24 4 -30 18 -28 25 4 28 11 24 61 -3 34 -9 46 -23 50 -15 4 -19 0 -19
-18z"/>
<path d="M247 1793 c-14 -14 -6 -24 14 -18 18 6 19 5 10 -13 -6 -12 -16 -24
-21 -27 -25 -15 -5 -25 50 -25 33 0 60 4 60 10 0 6 -5 10 -10 10 -6 0 -6 7 1
19 7 10 9 26 6 35 -8 20 -47 21 -47 1 0 -9 6 -12 15 -9 20 8 19 -3 -2 -30 -10
-12 -26 -20 -36 -18 -15 3 -16 6 -3 24 8 11 12 27 9 34 -5 14 -35 19 -46 7z"/>
<path d="M382 1788 c-26 -26 -8 -83 24 -76 15 2 19 12 19 43 0 42 -19 57 -43
33z m28 -39 c0 -17 -4 -28 -10 -24 -5 3 -10 17 -10 31 0 13 5 24 10 24 6 0 10
-14 10 -31z"/>
<path d="M4807 1793 c-14 -14 -6 -24 14 -18 18 6 19 5 10 -13 -6 -12 -16 -24
-21 -27 -20 -12 -9 -25 20 -25 17 0 30 5 30 10 0 6 -7 10 -16 10 -13 0 -14 2
0 21 8 12 12 28 9 35 -5 14 -35 19 -46 7z"/>
<path d="M4874 1786 c-11 -30 0 -71 20 -71 23 0 36 32 25 63 -9 25 -37 30 -45
8z m28 -48 c-10 -22 -11 -21 -11 12 -1 26 2 31 11 22 8 -8 8 -17 0 -34z"/>
<path d="M4937 1793 c-14 -13 -6 -24 13 -18 11 3 20 2 20 -3 0 -5 -9 -17 -20
-27 -28 -25 -25 -35 10 -35 17 0 30 5 30 10 0 6 -7 10 -17 10 -15 0 -14 2 2
20 9 10 15 26 12 35 -6 15 -38 21 -50 8z"/>
<path d="M495 1766 c-42 -64 41 -130 95 -76 41 41 13 100 -48 100 -22 0 -36
-7 -47 -24z m50 4 c-3 -5 5 -22 19 -37 14 -15 23 -29 20 -32 -3 -3 -10 2 -15
12 -13 22 -49 23 -49 1 0 -11 6 -15 20 -11 11 3 20 1 20 -5 0 -5 -10 -8 -22
-6 -23 3 -40 48 -19 48 6 0 11 9 11 20 0 11 5 20 11 20 5 0 7 -4 4 -10z"/>
<path d="M4632 1778 c-18 -18 -14 -73 6 -91 10 -10 30 -17 44 -17 51 0 78 69
40 103 -22 20 -73 22 -90 5z m43 -7 c-3 -5 6 -22 21 -38 l26 -28 -31 -9 c-41
-12 -62 5 -43 34 6 11 12 27 12 35 0 8 5 15 11 15 5 0 8 -4 4 -9z"/>
<path d="M4650 1715 c0 -11 7 -15 23 -13 12 2 22 8 22 13 0 6 -10 11 -22 13
-16 2 -23 -2 -23 -13z"/>
<path d="M797 1734 c-5 -29 17 -44 36 -25 9 10 8 15 -6 26 -13 10 -15 14 -5
18 9 4 8 6 -3 6 -10 1 -19 -9 -22 -25z"/>
<path d="M4410 1749 c0 -5 4 -8 8 -5 4 2 8 -4 8 -14 0 -11 -5 -16 -15 -12 -9
3 -12 1 -7 -6 8 -14 32 -16 40 -4 9 15 -6 52 -20 52 -8 0 -14 -5 -14 -11z"/>
<path d="M3922 1718 c-15 -15 -16 -32 -2 -23 6 4 10 -5 10 -19 0 -14 5 -26 10
-26 6 0 10 18 10 40 0 41 -7 49 -28 28z"/>
<path d="M3974 1716 c-11 -30 0 -61 24 -64 21 -3 23 0 20 35 -3 40 -32 59 -44
29z m23 -43 c-3 -10 -5 -2 -5 17 0 19 2 27 5 18 2 -10 2 -26 0 -35z"/>
<path d="M4046 1708 c-22 -31 -20 -45 6 -52 30 -7 37 2 31 42 -6 38 -16 40
-37 10z"/>
<path d="M700 1688 c0 -21 0 -21 15 -2 13 18 14 18 8 -6 -6 -22 -5 -23 10 -12
20 17 11 42 -14 42 -13 0 -19 -7 -19 -22z"/>
<path d="M3567 1683 c-3 -5 -1 -17 4 -28 7 -17 8 -17 8 8 1 27 -4 34 -12 20z"/>
<path d="M3590 1665 c0 -16 6 -25 15 -25 9 0 15 9 15 25 0 16 -6 25 -15 25 -9
0 -15 -9 -15 -25z m17 -7 c-3 -8 -6 -5 -6 6 -1 11 2 17 5 13 3 -3 4 -12 1 -19z"/>
<path d="M700 1625 c0 -28 4 -35 20 -35 25 0 26 17 3 23 -17 4 -17 5 0 6 9 0
17 6 17 11 0 6 1 13 3 17 1 3 -8 8 -20 9 -20 3 -23 0 -23 -31z"/>
<path d="M3636 1643 c-13 -13 -5 -39 13 -40 14 -1 17 3 14 18 -6 22 -17 31
-27 22z"/>
<path d="M814 1609 c-23 -29 -23 -37 -4 -42 24 -6 29 1 21 32 -5 19 -8 21 -17
10z"/>
<path d="M2616 1613 c-13 -13 -5 -39 13 -40 14 -1 17 3 14 18 -6 22 -17 31
-27 22z"/>
<path d="M4412 1586 c-9 -20 -8 -25 8 -29 24 -6 28 -2 22 28 -6 31 -16 32 -30
1z"/>
<path d="M681 1565 c0 -16 3 -25 7 -19 4 7 18 14 32 17 l25 4 -27 2 c-14 0
-29 7 -31 14 -3 6 -6 -1 -6 -18z"/>
<path d="M3805 1440 c77 -77 142 -140 145 -140 2 0 -58 63 -135 140 -77 77
-142 140 -145 140 -2 0 58 -63 135 -140z"/>
<path d="M2614 1460 c0 -52 1 -74 3 -47 2 26 2 68 0 95 -2 26 -3 4 -3 -48z"/>
<path d="M1162 1528 c-15 -15 -16 -32 -2 -23 6 4 10 -5 10 -19 0 -14 5 -26 10
-26 6 0 10 18 10 40 0 41 -7 49 -28 28z"/>
<path d="M1220 1530 c-11 -7 -12 -12 -4 -17 7 -5 14 -19 17 -33 3 -16 5 -10 6
18 0 23 0 42 -1 42 -2 0 -10 -5 -18 -10z"/>
<path d="M1267 1533 c-3 -5 -4 -21 -3 -38 1 -31 32 -48 46 -26 13 22 -1 71
-21 71 -10 0 -20 -3 -22 -7z m33 -47 c0 -3 -4 -8 -10 -11 -5 -3 -10 -1 -10 4
0 6 5 11 10 11 6 0 10 -2 10 -4z"/>
<path d="M247 1463 c-14 -14 -6 -24 14 -18 18 6 19 5 10 -13 -6 -12 -16 -24
-21 -27 -20 -12 -9 -25 20 -25 17 0 30 5 30 10 0 6 -7 10 -16 10 -13 0 -14 2
0 21 8 12 12 28 9 35 -5 14 -35 19 -46 7z"/>
<path d="M322 1458 c-15 -15 -16 -32 -2 -23 6 4 10 -7 10 -24 0 -17 5 -31 10
-31 6 0 10 20 10 45 0 46 -7 54 -28 33z"/>
<path d="M377 1463 c-15 -14 -6 -44 16 -53 l22 -9 -23 0 c-28 -1 -19 -21 8
-21 22 0 36 37 25 69 -6 20 -34 28 -48 14z m33 -22 c0 -6 -4 -13 -10 -16 -5
-3 -10 1 -10 9 0 9 5 16 10 16 6 0 10 -4 10 -9z"/>
<path d="M4807 1463 c-14 -14 -6 -24 14 -18 18 6 19 5 10 -13 -6 -12 -16 -24
-21 -27 -20 -12 -9 -25 20 -25 17 0 30 5 30 10 0 6 -7 10 -16 10 -13 0 -14 2
0 21 8 12 12 28 9 35 -5 14 -35 19 -46 7z"/>
<path d="M4874 1456 c-11 -30 0 -71 20 -71 23 0 36 32 25 63 -9 25 -37 30 -45
8z m28 -48 c-10 -22 -11 -21 -11 12 -1 26 2 31 11 22 8 -8 8 -17 0 -34z"/>
<path d="M4940 1456 c0 -8 7 -21 15 -30 21 -20 20 -43 0 -26 -9 7 -18 10 -22
6 -11 -10 13 -28 33 -24 15 2 19 12 19 43 0 34 -3 40 -22 43 -15 2 -23 -2 -23
-12z"/>
<path d="M4377 1434 c-5 -29 17 -44 36 -25 9 10 8 15 -6 26 -18 13 -18 13 0
18 15 4 15 5 -3 6 -16 1 -23 -6 -27 -25z"/>
<path d="M840 1441 c0 -6 5 -13 10 -16 6 -3 10 -11 10 -16 0 -6 -4 -7 -10 -4
-5 3 -10 1 -10 -5 0 -6 7 -10 16 -8 8 2 15 6 15 11 -1 4 -1 16 -1 27 0 11 -7
20 -15 20 -8 0 -15 -4 -15 -9z"/>
<path d="M3562 1358 c-15 -15 -16 -32 -2 -23 6 4 10 -5 10 -19 0 -14 5 -26 10
-26 6 0 10 18 10 40 0 41 -7 49 -28 28z"/>
<path d="M3614 1356 c-11 -30 0 -61 24 -64 21 -3 23 0 20 35 -3 40 -32 59 -44
29z m23 -43 c-3 -10 -5 -2 -5 17 0 19 2 27 5 18 2 -10 2 -26 0 -35z"/>
<path d="M3674 1356 c-11 -29 1 -61 24 -64 18 -3 22 1 22 22 0 16 -6 26 -15
26 -8 0 -15 4 -15 10 0 5 7 7 15 4 8 -4 15 -1 15 5 0 16 -40 13 -46 -3z m31
-35 c3 -5 1 -12 -5 -16 -5 -3 -10 1 -10 9 0 18 6 21 15 7z"/>
<path d="M4270 1320 c0 -25 4 -31 18 -28 23 5 23 52 -1 56 -13 3 -17 -3 -17
-28z"/>
<path d="M950 1329 c0 -5 5 -7 10 -4 6 3 10 2 10 -4 0 -5 -4 -13 -10 -16 -18
-11 -11 -25 13 -24 12 0 16 3 10 6 -9 3 -10 10 -3 22 5 10 6 21 3 25 -10 10
-33 7 -33 -5z"/>
<path d="M1942 1328 c-15 -15 -16 -32 -2 -23 6 4 10 -5 10 -19 0 -14 5 -26 10
-26 6 0 10 18 10 40 0 41 -7 49 -28 28z"/>
<path d="M2000 1330 c-11 -7 -12 -12 -4 -17 7 -5 14 -19 17 -33 3 -16 5 -10 6
18 0 23 0 42 -1 42 -2 0 -10 -5 -18 -10z"/>
<path d="M2045 1330 c-3 -5 1 -10 9 -10 10 0 13 -6 10 -15 -4 -8 -1 -15 6 -15
6 0 9 -4 5 -10 -3 -5 -13 -6 -22 -3 -11 4 -14 3 -9 -5 10 -17 43 -15 49 3 4 8
2 17 -2 20 -5 3 -7 14 -4 25 4 15 0 20 -15 20 -12 0 -24 -4 -27 -10z"/>
<path d="M2252 1328 c-15 -15 -16 -32 -2 -23 6 4 10 -5 10 -19 0 -14 5 -26 10
-26 6 0 10 18 10 40 0 41 -7 49 -28 28z"/>
<path d="M2310 1330 c-11 -7 -12 -12 -4 -17 7 -5 14 -19 17 -33 3 -16 5 -10 6
18 0 23 0 42 -1 42 -2 0 -10 -5 -18 -10z"/>
<path d="M2357 1333 c-15 -14 -6 -24 16 -17 l22 6 -22 -24 c-30 -32 -29 -38 7
-38 17 0 30 5 30 10 0 6 -5 10 -10 10 -7 0 -7 6 -2 18 5 9 7 23 5 30 -5 13
-35 17 -46 5z"/>
<path d="M2562 1328 c-15 -15 -16 -32 -2 -23 6 4 10 -5 10 -19 0 -14 5 -26 10
-26 6 0 10 18 10 40 0 41 -7 49 -28 28z"/>
<path d="M2620 1330 c-11 -7 -12 -12 -4 -17 7 -5 14 -19 17 -33 3 -16 5 -10 6
18 0 23 0 42 -1 42 -2 0 -10 -5 -18 -10z"/>
<path d="M2672 1328 c-15 -15 -16 -32 -2 -23 6 4 10 -5 10 -19 0 -14 5 -26 10
-26 6 0 10 18 10 40 0 41 -7 49 -28 28z"/>
<path d="M2862 1328 c-15 -15 -16 -32 -2 -23 6 4 10 -5 10 -19 0 -14 5 -26 10
-26 6 0 10 18 10 40 0 41 -7 49 -28 28z"/>
<path d="M2920 1330 c-11 -7 -12 -12 -4 -17 7 -5 14 -19 17 -33 3 -16 5 -10 6
18 0 23 0 42 -1 42 -2 0 -10 -5 -18 -10z"/>
<path d="M2965 1320 c-9 -29 4 -60 25 -60 10 0 22 9 25 20 9 29 -4 60 -25 60
-10 0 -22 -9 -25 -20z m35 -20 c0 -11 -4 -20 -10 -20 -5 0 -10 9 -10 20 0 11
5 20 10 20 6 0 10 -9 10 -20z"/>
<path d="M3172 1328 c-15 -15 -16 -32 -2 -23 6 4 10 -5 10 -19 0 -14 5 -26 10
-26 6 0 10 18 10 40 0 41 -7 49 -28 28z"/>
<path d="M3224 1326 c-11 -30 0 -61 24 -64 21 -3 23 0 20 35 -3 40 -32 59 -44
29z m23 -43 c-3 -10 -5 -2 -5 17 0 19 2 27 5 18 2 -10 2 -26 0 -35z"/>
<path d="M3287 1334 c-13 -13 -7 -44 8 -44 8 0 15 -4 15 -10 0 -5 -7 -7 -15
-4 -8 4 -15 1 -15 -6 0 -6 10 -10 23 -8 18 2 22 9 22 38 0 33 -20 51 -38 34z
m20 -26 c-3 -8 -6 -5 -6 6 -1 11 2 17 5 13 3 -3 4 -12 1 -19z"/>
<path d="M1532 1308 c-15 -15 -16 -32 -2 -23 6 4 10 -5 10 -19 0 -14 5 -26 10
-26 6 0 10 18 10 40 0 41 -7 49 -28 28z"/>
<path d="M1590 1310 c-11 -7 -12 -12 -4 -17 7 -5 14 -19 17 -33 3 -16 5 -10 6
18 0 23 0 42 -1 42 -2 0 -10 -5 -18 -10z"/>
<path d="M1635 1300 c-10 -33 4 -62 28 -58 31 4 34 36 5 47 -17 7 -19 10 -5
10 24 1 22 21 -2 21 -11 0 -23 -9 -26 -20z m35 -30 c0 -5 -4 -10 -10 -10 -5 0
-10 5 -10 10 0 6 5 10 10 10 6 0 10 -4 10 -10z"/>
<path d="M616 1294 c-19 -18 -21 -75 -4 -92 18 -18 73 -14 91 6 37 40 9 102
-46 102 -14 0 -33 -7 -41 -16z m42 -6 c-3 -7 6 -24 18 -37 l23 -24 -26 -14
c-23 -12 -29 -12 -42 2 -13 12 -13 19 -3 35 6 11 12 27 12 35 0 8 5 15 11 15
6 0 9 -6 7 -12z"/>
<path d="M630 1236 c0 -18 35 -22 45 -6 3 6 2 10 -4 10 -5 0 -16 3 -25 6 -11
4 -16 1 -16 -10z"/>
<path d="M3973 1294 c3 -4 2 -15 -4 -25 -8 -16 -6 -19 13 -19 17 0 19 3 9 9
-9 6 -10 11 -2 15 17 11 13 26 -6 26 -9 0 -13 -3 -10 -6z"/>
<path d="M4546 1268 c-34 -48 -7 -98 52 -98 33 0 62 29 62 62 0 51 -85 78
-114 36z m73 -49 c7 -13 10 -21 6 -17 -4 4 -14 1 -21 -7 -26 -25 -62 6 -43 36
7 11 9 9 9 -8 0 -23 23 -32 35 -13 3 6 -1 10 -9 10 -11 0 -16 10 -16 33 0 30
1 31 13 11 6 -12 18 -32 26 -45z"/>
<path d="M4172 1252 c13 -5 15 -11 8 -22 -12 -18 -13 -30 -2 -30 4 0 13 14 19
30 11 29 10 30 -15 29 -20 0 -23 -2 -10 -7z"/>
<path d="M2614 1150 c0 -52 1 -74 3 -47 2 26 2 68 0 95 -2 26 -3 4 -3 -48z"/>
<path d="M1078 1225 c-8 -8 3 -55 13 -55 5 0 9 14 9 30 0 28 -9 38 -22 25z"/>
<path d="M397 1163 c-14 -14 -6 -24 14 -18 18 6 19 5 10 -13 -6 -12 -16 -24
-21 -27 -20 -12 -9 -25 20 -25 17 0 30 5 30 10 0 6 -7 10 -16 10 -13 0 -14 2
0 21 8 12 12 28 9 35 -5 14 -35 19 -46 7z"/>
<path d="M472 1158 c-15 -15 -16 -32 -2 -23 6 4 10 -7 10 -24 0 -17 5 -31 10
-31 6 0 10 20 10 45 0 46 -7 54 -28 33z"/>
<path d="M529 1163 c-1 -4 -2 -24 -2 -43 -2 -31 1 -35 23 -35 23 0 25 4 25 40
0 34 -3 40 -22 43 -13 2 -23 0 -24 -5z m31 -59 c0 -8 -4 -12 -10 -9 -5 3 -10
10 -10 16 0 5 5 9 10 9 6 0 10 -7 10 -16z"/>
<path d="M4667 1163 c-14 -14 -6 -24 14 -18 18 6 19 5 10 -13 -6 -12 -16 -24
-21 -27 -20 -12 -9 -25 20 -25 17 0 30 5 30 10 0 6 -7 10 -16 10 -13 0 -14 2
0 21 8 12 12 28 9 35 -5 14 -35 19 -46 7z"/>
<path d="M4734 1156 c-11 -30 0 -71 20 -71 23 0 36 32 25 63 -9 25 -37 30 -45
8z m28 -48 c-10 -22 -11 -21 -11 12 -1 26 2 31 11 22 8 -8 8 -17 0 -34z"/>
<path d="M4807 1141 c-22 -37 -21 -41 3 -41 11 0 20 -6 20 -12 0 -10 2 -10 8
-1 9 15 3 83 -7 83 -4 0 -14 -13 -24 -29z m23 -16 c0 -8 -4 -15 -10 -15 -5 0
-7 7 -4 15 4 8 8 15 10 15 2 0 4 -7 4 -15z"/>
<path d="M4067 1135 c-3 -17 0 -28 9 -32 20 -8 34 6 30 30 -5 32 -32 34 -39 2z"/>
<path d="M1160 1108 c0 -5 5 -6 10 -3 16 10 12 -7 -7 -27 -15 -17 -15 -18 13
-17 16 0 24 3 17 6 -10 3 -10 9 0 24 17 27 25 24 20 -8 l-4 -28 15 25 c22 36
20 39 -24 38 -22 0 -40 -5 -40 -10z"/>
<path d="M2280 1100 c-24 -24 -26 -53 -4 -74 18 -19 65 -21 82 -4 18 18 14 63
-6 81 -25 22 -48 21 -72 -3z m33 -7 c0 -4 11 -19 24 -33 l23 -25 -26 -9 c-32
-10 -66 16 -46 36 7 7 12 21 12 32 0 18 10 18 13 -1z"/>
<path d="M2290 1051 c0 -6 4 -12 9 -15 13 -8 42 4 35 15 -7 12 -44 12 -44 0z"/>
<path d="M3510 1100 c-24 -24 -25 -38 -4 -68 29 -42 104 -17 104 35 0 20 -38
53 -60 53 -11 0 -29 -9 -40 -20z m38 -2 c-2 -6 7 -23 20 -37 l23 -25 -22 -8
c-45 -17 -59 4 -39 56 9 25 26 38 18 14z"/>
<path d="M3530 1050 c0 -11 6 -20 14 -20 24 0 28 18 6 30 -17 9 -20 8 -20 -10z"/>
<path d="M3966 1052 c-10 -17 6 -53 23 -50 22 4 21 52 -1 56 -9 2 -19 -1 -22
-6z"/>
<path d="M2613 1034 c3 -4 2 -15 -4 -25 -8 -16 -6 -19 13 -19 17 0 19 3 9 9
-9 6 -10 11 -2 15 17 11 13 26 -6 26 -9 0 -13 -3 -10 -6z"/>
<path d="M1250 1008 c0 -5 5 -6 10 -3 16 10 12 -7 -7 -27 -15 -17 -14 -18 30
-18 45 0 47 1 47 29 0 28 -2 30 -40 29 -22 0 -40 -5 -40 -10z m40 -28 c0 -5
-5 -10 -11 -10 -5 0 -7 5 -4 10 3 6 8 10 11 10 2 0 4 -4 4 -10z"/>
<path d="M3806 912 c-7 -12 5 -52 15 -52 5 0 9 14 9 30 0 28 -13 40 -24 22z"/>
<path d="M3840 890 c0 -23 4 -30 20 -30 16 0 20 7 20 30 0 23 -4 30 -20 30
-16 0 -20 -7 -20 -30z"/>
<path d="M1400 898 c0 -5 5 -6 10 -3 16 10 12 -7 -7 -27 -15 -17 -14 -18 30
-18 40 0 47 3 47 20 0 11 -6 20 -12 20 -9 0 -8 3 2 10 10 6 2 9 -28 8 -23 0
-42 -5 -42 -10z m40 -28 c0 -5 -5 -10 -11 -10 -5 0 -7 5 -4 10 3 6 8 10 11 10
2 0 4 -4 4 -10z"/>
<path d="M1590 899 c0 -5 5 -7 10 -4 16 10 12 -7 -6 -27 -16 -17 -15 -18 30
-16 43 2 46 4 46 30 0 35 -17 36 -32 3 -6 -14 -16 -25 -21 -25 -5 0 -4 7 3 15
6 8 9 19 5 25 -8 13 -35 13 -35 -1z"/>
<path d="M1740 899 c0 -6 5 -7 10 -4 16 10 12 -7 -7 -27 -15 -17 -14 -18 31
-18 45 0 47 1 43 28 -3 23 -9 27 -40 29 -20 1 -37 -2 -37 -8z m53 -22 c3 -8
-3 -14 -15 -14 -16 -2 -17 1 -8 13 15 17 17 17 23 1z"/>
<path d="M1890 898 c0 -5 5 -6 10 -3 16 10 12 -7 -7 -27 -15 -17 -14 -18 33
-18 31 0 44 3 35 9 -9 6 -10 11 -2 15 26 16 10 35 -29 34 -22 0 -40 -5 -40
-10z m50 -23 c-7 -8 -17 -15 -22 -15 -6 0 -5 7 2 15 7 8 17 15 22 15 6 0 5 -7
-2 -15z"/>
<path d="M2050 898 c0 -5 5 -6 10 -3 16 10 12 -7 -7 -27 -15 -17 -15 -18 13
-17 16 0 23 3 16 6 -6 2 -10 9 -6 14 8 14 24 11 24 -6 0 -8 5 -15 10 -15 6 0
10 13 10 28 0 25 -4 28 -35 29 -19 1 -35 -3 -35 -9z"/>
<path d="M2200 898 c0 -5 5 -6 10 -3 16 10 12 -7 -7 -27 -15 -17 -14 -18 30
-18 45 0 47 1 47 29 0 28 -2 30 -40 29 -22 0 -40 -5 -40 -10z m40 -28 c0 -5
-5 -10 -11 -10 -5 0 -7 5 -4 10 3 6 8 10 11 10 2 0 4 -4 4 -10z"/>
<path d="M2366 902 c-7 -12 5 -52 15 -52 5 0 9 14 9 30 0 28 -13 40 -24 22z"/>
<path d="M2400 880 c0 -25 4 -31 18 -28 11 2 17 12 17 28 0 16 -6 26 -17 28
-14 3 -18 -3 -18 -28z"/>
<path d="M2516 902 c-7 -12 5 -52 15 -52 5 0 9 14 9 30 0 28 -13 40 -24 22z"/>
<path d="M2550 880 c0 -23 4 -30 20 -30 16 0 20 7 20 30 0 23 -4 30 -20 30
-16 0 -20 -7 -20 -30z"/>
<path d="M2676 902 c-7 -12 5 -52 15 -52 5 0 9 14 9 30 0 28 -13 40 -24 22z"/>
<path d="M2716 904 c6 -3 9 -17 7 -32 l-4 -27 15 25 c21 34 20 40 -6 39 -13 0
-18 -3 -12 -5z"/>
<path d="M2826 902 c-7 -12 5 -52 15 -52 5 0 9 14 9 30 0 28 -13 40 -24 22z"/>
<path d="M2860 880 c0 -23 4 -30 20 -30 16 0 20 7 20 30 0 23 -4 30 -20 30
-16 0 -20 -7 -20 -30z"/>
<path d="M2986 902 c-7 -12 5 -52 15 -52 5 0 9 14 9 30 0 28 -13 40 -24 22z"/>
<path d="M3020 880 c0 -23 4 -30 20 -30 13 0 20 7 20 20 0 11 -6 20 -12 20 -9
0 -8 4 2 10 12 8 11 10 -7 10 -19 0 -23 -6 -23 -30z"/>
<path d="M3126 902 c-7 -12 5 -52 15 -52 5 0 9 14 9 30 0 28 -13 40 -24 22z"/>
<path d="M3169 889 c-9 -17 -8 -23 2 -30 23 -15 29 -10 29 21 0 35 -14 39 -31
9z"/>
<path d="M3286 902 c-7 -12 5 -52 15 -52 5 0 9 14 9 30 0 28 -13 40 -24 22z"/>
<path d="M3320 905 c0 -3 5 -16 11 -27 8 -15 8 -19 0 -14 -6 4 -11 2 -11 -3 0
-6 9 -11 20 -11 17 0 20 5 17 28 -2 15 -11 28 -20 30 -10 2 -17 1 -17 -3z"/>
<path d="M3436 902 c-7 -12 5 -52 15 -52 5 0 9 14 9 30 0 28 -13 40 -24 22z"/>
<path d="M3470 900 c0 -5 5 -10 12 -10 9 0 9 -3 0 -12 -18 -18 -14 -28 11 -28
16 0 18 3 8 9 -9 6 -10 11 -2 15 18 12 12 36 -9 36 -11 0 -20 -4 -20 -10z"/>
<path d="M3596 902 c-7 -12 5 -52 15 -52 5 0 9 14 9 30 0 28 -13 40 -24 22z"/>
<path d="M3636 902 c-7 -12 5 -52 15 -52 5 0 9 14 9 30 0 28 -13 40 -24 22z"/>
<path d="M667 893 c-14 -14 -6 -24 14 -18 18 6 19 5 10 -13 -6 -12 -16 -24
-21 -27 -20 -12 -9 -25 20 -25 17 0 30 5 30 10 0 6 -7 10 -16 10 -13 0 -14 2
0 21 8 12 12 28 9 35 -5 14 -35 19 -46 7z"/>
<path d="M742 888 c-15 -15 -16 -32 -2 -23 6 4 10 -7 10 -24 0 -17 5 -31 10
-31 6 0 10 20 10 45 0 46 -7 54 -28 33z"/>
<path d="M790 890 c0 -5 7 -10 15 -10 18 0 17 3 6 -38 -13 -44 2 -40 19 6 8
20 16 40 18 45 2 4 -10 7 -27 7 -17 0 -31 -4 -31 -10z"/>
<path d="M4397 893 c-14 -14 -6 -24 14 -18 18 6 19 5 10 -13 -6 -12 -16 -24
-21 -27 -20 -12 -9 -25 20 -25 17 0 30 5 30 10 0 6 -7 10 -16 10 -13 0 -14 2
0 21 8 12 12 28 9 35 -5 14 -35 19 -46 7z"/>
<path d="M4464 886 c-3 -8 -4 -27 -2 -43 4 -35 37 -45 45 -14 7 26 53 30 53 5
0 -13 -3 -14 -14 -5 -10 8 -16 9 -21 1 -8 -13 20 -24 40 -16 21 7 19 43 -2 55
-17 10 -17 10 0 11 9 0 17 5 17 10 0 6 -11 10 -25 10 -18 0 -25 -5 -25 -20 0
-11 -4 -20 -9 -20 -5 0 -11 9 -14 20 -6 23 -35 27 -43 6z m28 -48 c-10 -22
-11 -21 -11 12 -1 26 2 31 11 22 8 -8 8 -17 0 -34z"/>
<path d="M1100 800 c-39 -39 -11 -110 44 -110 25 0 66 41 66 65 0 7 -9 24 -21
39 -25 31 -61 34 -89 6z m61 -41 c11 -11 19 -24 19 -31 0 -6 -3 -8 -7 -5 -3 4
-12 2 -19 -4 -20 -16 -44 -3 -43 23 l2 23 4 -23 c3 -15 10 -22 20 -20 22 4 29
28 9 28 -11 0 -16 9 -15 28 0 15 3 21 6 13 3 -7 14 -22 24 -32z"/>
<path d="M4067 802 c-37 -40 -10 -112 41 -112 29 0 62 34 62 65 0 54 -69 85
-103 47z m38 -11 c-3 -5 7 -22 22 -37 26 -26 26 -28 8 -35 -33 -12 -52 -10
-59 7 -7 18 14 74 27 74 5 0 6 -4 2 -9z"/>
<path d="M4083 738 c2 -7 12 -13 22 -13 10 0 20 6 23 13 2 7 -6 12 -23 12 -17
0 -25 -5 -22 -12z"/>
<path d="M2606 734 c-10 -25 -7 -30 14 -30 13 0 19 5 15 14 -3 7 -5 18 -5 23
0 15 -17 10 -24 -7z"/>
<path d="M1596 674 c-19 -18 -21 -75 -4 -92 18 -18 73 -14 91 6 37 40 9 102
-46 102 -14 0 -33 -7 -41 -16z m42 -6 c-3 -7 6 -24 18 -37 l23 -24 -26 -14
c-23 -12 -29 -12 -42 2 -13 12 -13 19 -3 35 6 11 12 27 12 35 0 8 5 15 11 15
6 0 9 -6 7 -12z"/>
<path d="M1610 616 c0 -18 35 -22 45 -6 3 6 2 10 -4 10 -5 0 -16 3 -25 6 -11
4 -16 1 -16 -10z"/>
<path d="M2226 674 c-19 -18 -21 -75 -4 -92 18 -18 73 -14 91 6 37 40 9 102
-46 102 -14 0 -33 -7 -41 -16z m42 -6 c-3 -7 6 -24 18 -37 l23 -24 -26 -14
c-23 -12 -29 -12 -42 2 -13 12 -13 19 -3 35 6 11 12 27 12 35 0 8 5 15 11 15
6 0 9 -6 7 -12z"/>
<path d="M2240 616 c0 -18 35 -22 45 -6 3 6 2 10 -4 10 -5 0 -16 3 -25 6 -11
4 -16 1 -16 -10z"/>
<path d="M2916 668 c-34 -48 -7 -98 52 -98 33 0 62 29 62 62 0 51 -85 78 -114
36z m73 -49 c7 -13 10 -21 6 -17 -4 4 -14 1 -21 -7 -26 -25 -62 6 -43 36 7 11
9 9 9 -8 0 -23 23 -32 35 -13 3 6 -1 10 -9 10 -11 0 -16 10 -16 33 0 30 1 31
13 11 6 -12 18 -32 26 -45z"/>
<path d="M3606 674 c-19 -18 -21 -75 -4 -92 18 -18 73 -14 91 6 37 40 9 102
-46 102 -14 0 -33 -7 -41 -16z m42 -6 c-3 -7 6 -24 18 -37 l23 -24 -26 -14
c-23 -12 -29 -12 -42 2 -13 12 -13 19 -3 35 6 11 12 27 12 35 0 8 5 15 11 15
6 0 9 -6 7 -12z"/>
<path d="M3620 616 c0 -18 35 -22 45 -6 3 6 2 10 -4 10 -5 0 -16 3 -25 6 -11
4 -16 1 -16 -10z"/>
<path d="M2614 585 c0 -49 1 -71 3 -48 2 23 2 64 0 90 -2 26 -3 8 -3 -42z"/>
<path d="M947 603 c-14 -14 -6 -24 14 -18 18 6 19 5 10 -13 -6 -12 -16 -24
-21 -27 -20 -12 -9 -25 20 -25 17 0 30 5 30 10 0 6 -7 10 -16 10 -13 0 -14 2
0 21 8 12 12 28 9 35 -5 14 -35 19 -46 7z"/>
<path d="M1022 598 c-15 -15 -16 -32 -2 -23 6 4 10 -7 10 -24 0 -17 5 -31 10
-31 6 0 10 20 10 45 0 46 -7 54 -28 33z"/>
<path d="M1082 598 c-26 -26 -8 -83 24 -76 29 5 30 46 2 57 l-23 10 23 0 c13
1 20 5 17 11 -8 14 -28 13 -43 -2z m28 -54 c0 -8 -4 -12 -10 -9 -5 3 -10 10
-10 16 0 5 5 9 10 9 6 0 10 -7 10 -16z"/>
<path d="M4117 603 c-14 -14 -6 -24 14 -18 18 6 19 5 10 -13 -6 -12 -16 -24
-21 -27 -20 -12 -9 -25 20 -25 17 0 30 5 30 10 0 6 -7 10 -16 10 -13 0 -14 2
0 21 8 12 12 28 9 35 -5 14 -35 19 -46 7z"/>
<path d="M4184 596 c-3 -8 -4 -27 -2 -43 4 -36 35 -44 47 -11 l8 23 7 -23 c10
-31 50 -26 54 6 3 18 -2 25 -20 30 l-23 6 25 7 c23 6 23 7 6 14 -14 6 -24 2
-36 -13 -17 -21 -18 -21 -23 -2 -6 23 -35 27 -43 6z m28 -48 c-10 -22 -11 -21
-11 12 -1 26 2 31 11 22 8 -8 8 -17 0 -34z m68 -4 c0 -8 -4 -12 -10 -9 -5 3
-10 10 -10 16 0 5 5 9 10 9 6 0 10 -7 10 -16z"/>
<path d="M1237 443 c-14 -14 -6 -24 14 -18 18 6 19 5 10 -13 -6 -12 -16 -24
-21 -27 -20 -12 -9 -25 20 -25 17 0 30 5 30 10 0 6 -7 10 -16 10 -13 0 -14 2
0 21 8 12 12 28 9 35 -5 14 -35 19 -46 7z"/>
<path d="M1312 438 c-15 -15 -16 -32 -2 -23 6 4 10 -7 10 -24 0 -17 5 -31 10
-31 6 0 10 20 10 45 0 46 -7 54 -28 33z"/>
<path d="M1368 425 c-4 -19 -1 -25 13 -25 11 0 19 -7 19 -16 0 -13 -3 -14 -14
-5 -10 8 -16 9 -21 1 -8 -13 20 -24 40 -16 21 7 19 43 -2 55 -17 10 -17 10 0
11 9 0 17 5 17 10 0 6 -11 10 -24 10 -17 0 -25 -7 -28 -25z"/>
<path d="M1557 443 c-14 -14 -6 -24 14 -18 18 6 19 5 10 -13 -6 -12 -16 -24
-21 -27 -20 -12 -9 -25 20 -25 17 0 30 5 30 10 0 6 -7 10 -16 10 -13 0 -14 2
0 21 8 12 12 28 9 35 -5 14 -35 19 -46 7z"/>
<path d="M1632 438 c-15 -15 -16 -32 -2 -23 6 4 10 -7 10 -24 0 -17 5 -31 10
-31 6 0 10 20 10 45 0 46 -7 54 -28 33z"/>
<path d="M1697 421 c-22 -37 -21 -41 3 -41 11 0 20 -6 20 -12 0 -10 2 -10 8
-1 9 15 3 83 -7 83 -4 0 -14 -13 -24 -29z m23 -16 c0 -8 -4 -15 -10 -15 -5 0
-7 7 -4 15 4 8 8 15 10 15 2 0 4 -7 4 -15z"/>
<path d="M1867 443 c-14 -14 -6 -24 14 -18 18 6 19 5 10 -13 -6 -12 -16 -24
-21 -27 -20 -12 -9 -25 20 -25 17 0 30 5 30 10 0 6 -7 10 -16 10 -13 0 -14 2
0 21 8 12 12 28 9 35 -5 14 -35 19 -46 7z"/>
<path d="M1942 438 c-15 -15 -16 -32 -2 -23 6 4 10 -7 10 -24 0 -17 5 -31 10
-31 6 0 10 20 10 45 0 46 -7 54 -28 33z"/>
<path d="M2000 436 c0 -8 7 -21 15 -30 21 -20 20 -43 0 -26 -9 7 -18 10 -22 6
-11 -10 13 -28 33 -24 15 2 19 12 19 43 0 34 -3 40 -22 43 -15 2 -23 -2 -23
-12z"/>
<path d="M2197 443 c-14 -14 -6 -24 14 -18 18 6 19 5 10 -13 -6 -12 -16 -24
-21 -27 -20 -12 -9 -25 20 -25 17 0 30 5 30 10 0 6 -7 10 -16 10 -13 0 -14 2
0 21 8 12 12 28 9 35 -5 14 -35 19 -46 7z"/>
<path d="M2272 438 c-15 -15 -16 -32 -2 -23 6 4 10 -7 10 -24 0 -17 5 -31 10
-31 6 0 10 20 10 45 0 46 -7 54 -28 33z"/>
<path d="M2327 443 c-14 -13 -6 -24 13 -18 11 3 20 2 20 -3 0 -5 -9 -17 -20
-27 -28 -25 -25 -35 10 -35 17 0 30 5 30 10 0 6 -7 10 -17 10 -15 0 -14 2 2
20 9 10 15 26 12 35 -6 15 -38 21 -50 8z"/>
<path d="M2537 443 c-14 -14 -6 -24 14 -18 18 6 19 5 10 -13 -6 -12 -16 -24
-21 -27 -20 -12 -9 -25 20 -25 17 0 30 5 30 10 0 6 -7 10 -16 10 -13 0 -14 2
0 21 8 12 12 28 9 35 -5 14 -35 19 -46 7z"/>
<path d="M2612 438 c-15 -15 -16 -32 -2 -23 6 4 10 -7 10 -24 0 -17 5 -31 10
-31 6 0 10 20 10 45 0 46 -7 54 -28 33z"/>
<path d="M2672 438 c-15 -15 -16 -32 -2 -23 6 4 10 -7 10 -24 0 -17 5 -31 10
-31 6 0 10 20 10 45 0 46 -7 54 -28 33z"/>
<path d="M2877 443 c-14 -14 -6 -24 14 -18 18 6 19 5 10 -13 -6 -12 -16 -24
-21 -27 -20 -12 -9 -25 20 -25 17 0 30 5 30 10 0 6 -7 10 -16 10 -13 0 -14 2
0 21 8 12 12 28 9 35 -5 14 -35 19 -46 7z"/>
<path d="M2952 438 c-15 -15 -16 -32 -2 -23 6 4 10 -7 10 -24 0 -17 5 -31 10
-31 6 0 10 20 10 45 0 46 -7 54 -28 33z"/>
<path d="M3012 438 c-26 -26 -8 -83 24 -76 15 2 19 12 19 43 0 42 -19 57 -43
33z m28 -39 c0 -17 -4 -28 -10 -24 -5 3 -10 17 -10 31 0 13 5 24 10 24 6 0 10
-14 10 -31z"/>
<path d="M3207 443 c-14 -14 -6 -24 14 -18 18 6 19 5 10 -13 -6 -12 -16 -24
-21 -27 -20 -12 -9 -25 20 -25 17 0 30 5 30 10 0 6 -7 10 -16 10 -13 0 -14 2
0 21 8 12 12 28 9 35 -5 14 -35 19 -46 7z"/>
<path d="M3274 436 c-3 -8 -4 -27 -2 -43 4 -35 37 -45 45 -14 6 23 8 24 38 11
19 -8 19 -9 -3 -9 -28 -1 -19 -21 8 -21 22 0 36 37 25 69 -8 28 -43 27 -54 -1
l-8 -22 -5 22 c-7 25 -36 30 -44 8z m28 -48 c-10 -22 -11 -21 -11 12 -1 26 2
31 11 22 8 -8 8 -17 0 -34z m68 33 c0 -6 -4 -13 -10 -16 -5 -3 -10 1 -10 9 0
9 5 16 10 16 6 0 10 -4 10 -9z"/>
<path d="M3527 443 c-14 -14 -6 -24 14 -18 18 6 19 5 10 -13 -6 -12 -16 -24
-21 -27 -20 -12 -9 -25 20 -25 17 0 30 5 30 10 0 6 -7 10 -16 10 -13 0 -14 2
0 21 8 12 12 28 9 35 -5 14 -35 19 -46 7z"/>
<path d="M3594 436 c-11 -30 0 -71 20 -71 23 0 36 32 25 63 -9 25 -37 30 -45
8z m28 -48 c-10 -22 -11 -21 -11 12 -1 26 2 31 11 22 8 -8 8 -17 0 -34z"/>
<path d="M3659 443 c-1 -4 -2 -24 -2 -43 -2 -31 1 -35 23 -35 23 0 25 4 25 40
0 34 -3 40 -22 43 -13 2 -23 0 -24 -5z m31 -59 c0 -8 -4 -12 -10 -9 -5 3 -10
10 -10 16 0 5 5 9 10 9 6 0 10 -7 10 -16z"/>
<path d="M3857 443 c-14 -14 -6 -24 14 -18 18 6 19 5 10 -13 -6 -12 -16 -24
-21 -27 -20 -12 -9 -25 20 -25 17 0 30 5 30 10 0 6 -7 10 -16 10 -13 0 -14 2
0 21 8 12 12 28 9 35 -5 14 -35 19 -46 7z"/>
<path d="M3924 436 c-11 -30 0 -71 20 -71 23 0 36 32 25 63 -9 25 -37 30 -45
8z m28 -48 c-10 -22 -11 -21 -11 12 -1 26 2 31 11 22 8 -8 8 -17 0 -34z"/>
<path d="M3980 440 c0 -5 7 -10 15 -10 18 0 17 3 6 -38 -13 -44 2 -40 19 6 8
20 16 40 18 45 2 4 -10 7 -27 7 -17 0 -31 -4 -31 -10z"/>
<path d="M2613 290 c0 -30 2 -43 4 -27 2 15 2 39 0 55 -2 15 -4 2 -4 -28z"/>
<path d="M2603 185 c0 -14 6 -21 20 -22 15 -2 17 1 9 9 -8 8 -8 15 -1 24 8 10
6 13 -9 11 -13 -1 -19 -8 -19 -22z"/>
</g>
</svg>
