<?xml version="1.0" standalone="no"?>
<!DOCTYPE svg PUBLIC "-//W3C//DTD SVG 20010904//EN"
 "http://www.w3.org/TR/2001/REC-SVG-20010904/DTD/svg10.dtd">
<svg version="1.0" xmlns="http://www.w3.org/2000/svg"
 width="96.000000pt" height="96.000000pt" viewBox="0 0 96.000000 96.000000"
 preserveAspectRatio="xMidYMid meet">

<g transform="translate(0.000000,96.000000) scale(0.100000,-0.100000)"
fill="#000000" stroke="none">
<path d="M284 946 c-3 -8 -4 -27 -2 -42 2 -19 -5 -36 -24 -57 -44 -46 -50 -91
-46 -307 5 -224 15 -263 94 -370 31 -42 44 -70 44 -93 0 -56 22 -75 82 -73 29
1 60 6 70 10 9 4 33 3 55 -3 21 -6 73 -11 116 -11 l77 0 0 373 c0 222 -4 387
-10 409 -6 20 -23 50 -38 66 -20 21 -27 39 -27 68 0 33 -4 39 -23 42 -18 3
-25 -3 -33 -27 l-11 -31 -128 0 -128 0 -11 30 c-11 32 -47 42 -57 16z m46 -38
c13 -26 26 -35 88 -55 53 -17 77 -20 90 -13 9 6 37 16 62 23 35 10 48 19 60
44 18 38 30 42 30 10 0 -40 -27 -65 -91 -83 -51 -14 -63 -22 -71 -46 -6 -15
-14 -28 -18 -28 -4 0 -12 13 -18 28 -8 24 -20 32 -71 46 -64 18 -91 43 -91 83
0 32 12 28 30 -9z m183 -43 c-28 -12 -38 -12 -65 0 -33 14 -33 14 32 14 65 0
65 0 33 -14z m-191 -68 c-40 -41 -38 -105 3 -147 19 -18 43 -31 64 -33 23 -3
41 -13 53 -31 11 -14 28 -26 38 -26 10 0 27 12 38 26 12 18 30 28 53 31 21 2
45 15 64 33 41 42 43 106 3 147 l-27 28 29 17 c30 17 30 17 54 -15 47 -63 42
-141 -15 -211 -46 -55 -101 -76 -199 -76 -99 0 -153 21 -200 78 -57 69 -61
150 -10 215 20 25 21 25 50 9 l29 -17 -27 -28z m105 5 c6 -4 16 -20 22 -35 7
-17 18 -27 31 -27 13 0 24 10 31 27 12 33 26 43 60 43 72 0 107 -116 46 -154
-47 -30 -65 -29 -82 3 -27 54 -97 50 -111 -5 -6 -23 -10 -25 -38 -20 -71 14
-101 102 -51 151 24 25 68 33 92 17z m77 -138 c21 -21 20 -37 -4 -65 l-20 -24
-20 24 c-11 13 -20 29 -20 36 0 15 27 45 40 45 5 0 16 -7 24 -16z m-138 -132
c52 -15 180 -16 225 0 19 6 46 20 62 30 l27 19 0 -165 c0 -104 4 -166 10 -166
6 0 10 68 10 184 0 151 3 186 15 196 13 11 15 -23 15 -299 0 -350 5 -329 -75
-292 -47 22 -99 74 -114 114 -6 16 -11 82 -11 147 0 68 -4 121 -10 125 -6 4
-10 -39 -10 -122 0 -151 13 -188 81 -247 l44 -38 -40 6 c-69 12 -75 15 -75 46
0 62 -32 101 -68 81 -9 -5 -25 -5 -39 2 -17 7 -27 6 -39 -4 -15 -12 -20 -9
-46 21 -72 87 -98 180 -98 356 l0 113 48 -47 c28 -29 63 -52 88 -60z m54 -411
c26 -49 -1 -119 -35 -91 -25 21 -13 110 15 110 5 0 14 -9 20 -19z m70 0 c26
-49 -1 -119 -35 -91 -25 21 -13 110 15 110 5 0 14 -9 20 -19z"/>
<path d="M354 733 c-11 -43 43 -66 68 -29 14 20 8 33 -17 44 -37 17 -44 15
-51 -15z m56 -13 c0 -10 -26 -20 -34 -13 -14 14 -5 31 14 26 11 -3 20 -9 20
-13z"/>
<path d="M555 748 c-28 -15 -28 -14 -20 -37 4 -15 15 -21 35 -21 30 0 44 21
35 51 -7 21 -21 23 -50 7z m32 -32 c-4 -9 -13 -13 -22 -10 -20 8 -19 22 3 26
22 5 26 2 19 -16z"/>
<path d="M270 469 c0 -29 23 -37 110 -37 85 0 100 5 100 38 -1 12 -3 12 -14
-2 -7 -10 -20 -18 -29 -18 -8 0 -18 8 -22 18 -6 16 -7 16 -16 0 -6 -10 -16
-18 -24 -18 -8 0 -18 8 -24 18 -9 16 -10 16 -16 0 -4 -10 -14 -18 -22 -18 -9
0 -22 8 -29 18 -12 15 -13 15 -14 1z"/>
</g>
</svg>
