<?xml version="1.0" encoding="iso-8859-1"?>
<!-- Uploaded to: SVG Repo, www.svgrepo.com, Generator: SVG Repo Mixer Tools -->
<svg fill="#000000" height="800px" width="800px" version="1.1" id="Layer_1" xmlns="http://www.w3.org/2000/svg" xmlns:xlink="http://www.w3.org/1999/xlink" 
	 viewBox="0 0 356.92 356.92" xml:space="preserve">
<g>
	<g>
		<g>
			<path d="M94.87,225.21H49.96c-2.761,0-5,2.239-5,5v21.218c0,2.761,2.239,5,5,5h44.91c2.761,0,5-2.238,5-4.999V230.21
				C99.87,227.449,97.631,225.21,94.87,225.21z"/>
			<path d="M165.566,225.21h-44.91c-2.761,0-5,2.239-5,5v21.218c0,2.761,2.239,5,5,5h44.91c2.762,0,5-2.238,5-4.999V230.21
				C170.566,227.449,168.327,225.21,165.566,225.21z"/>
			<path d="M236.263,225.21h-44.91c-2.761,0-5,2.239-5,5v21.218c0,2.761,2.239,5,5,5h44.91c2.761,0,5-2.238,5-4.999V230.21
				C241.263,227.449,239.025,225.21,236.263,225.21z"/>
			<path d="M306.96,225.21h-44.91c-2.761,0-5,2.239-5,5v21.218c0,2.761,2.239,5,5,5h44.91c2.761,0,5-2.238,5-4.999V230.21
				C311.96,227.449,309.721,225.21,306.96,225.21z"/>
			<path d="M329.42,66.767H27.5c-15.163,0-27.5,12.336-27.5,27.5v168.386c0,15.163,12.337,27.5,27.5,27.5h301.92
				c15.163,0,27.5-12.337,27.5-27.5V94.267C356.92,79.103,344.583,66.767,329.42,66.767z M341.92,262.653
				c0,6.893-5.608,12.5-12.5,12.5H27.5c-6.893,0-12.5-5.607-12.5-12.5V94.267c0-6.893,5.607-12.5,12.5-12.5h301.92
				c6.892,0,12.5,5.607,12.5,12.5V262.653z"/>
			<path d="M126.46,172.767c4.142,0,7.5-3.357,7.5-7.5v-53c0-4.143-3.358-7.5-7.5-7.5h-80c-4.142,0-7.5,3.357-7.5,7.5v53
				c0,4.143,3.358,7.5,7.5,7.5H126.46z M53.96,119.767h65v38h-65V119.767z"/>
			<path d="M311.96,102.1h-128.5c-4.142,0-7.5,3.357-7.5,7.5v22.706c0,4.143,3.358,7.5,7.5,7.5h128.5c4.143,0,7.5-3.357,7.5-7.5
				V109.6C319.46,105.457,316.102,102.1,311.96,102.1z M304.46,124.806h-113.5V117.1h113.5V124.806z"/>
			<path d="M311.96,152.767h-128.5c-4.142,0-7.5,3.357-7.5,7.5s3.358,7.5,7.5,7.5h128.5c4.143,0,7.5-3.357,7.5-7.5
				S316.102,152.767,311.96,152.767z"/>
			<path d="M311.96,179.767h-128.5c-4.142,0-7.5,3.357-7.5,7.5s3.358,7.5,7.5,7.5h128.5c4.143,0,7.5-3.357,7.5-7.5
				S316.102,179.767,311.96,179.767z"/>
		</g>
	</g>
</g>
</svg>