<?xml version="1.0" standalone="no"?>
<!DOCTYPE svg PUBLIC "-//W3C//DTD SVG 20010904//EN"
 "http://www.w3.org/TR/2001/REC-SVG-20010904/DTD/svg10.dtd">
<svg version="1.0" xmlns="http://www.w3.org/2000/svg"
 width="1600.000000pt" height="1600.000000pt" viewBox="0 0 1600.000000 1600.000000"
 preserveAspectRatio="xMidYMid meet">

<g transform="translate(0.000000,1600.000000) scale(0.100000,-0.100000)"
fill="#000000" stroke="none">
<path d="M2031 13449 c-233 -27 -483 -121 -687 -257 -361 -242 -601 -609 -687
-1047 l-21 -110 -3 -3525 c-3 -2357 0 -3580 6 -3690 16 -250 55 -405 152 -610
205 -430 588 -743 1051 -860 185 -46 265 -50 1011 -50 l692 0 39 -68 c303
-522 808 -1079 1334 -1470 1091 -813 2477 -1152 3821 -936 1400 225 2642 1028
3430 2217 48 72 104 160 125 195 l37 62 692 0 c396 0 730 4 782 10 210 24 368
70 550 161 159 79 287 171 415 299 128 129 221 257 299 415 96 193 139 346
161 560 8 79 10 1130 8 3710 -4 3364 -5 3606 -21 3685 -72 354 -213 621 -456
860 -224 221 -486 361 -809 433 l-97 21 -5875 2 c-3242 1 -5908 -2 -5949 -7z
m11703 -629 c402 -39 713 -296 833 -685 l27 -90 4 -402 3 -403 -6666 0 -6666
0 4 393 c3 364 5 398 25 476 102 389 437 675 832 711 129 11 11485 11 11604 0z
m-5616 -2540 c1009 -45 1905 -393 2687 -1041 125 -103 424 -403 529 -528 87
-105 246 -314 246 -324 0 -4 -1458 -7 -3240 -7 l-3240 0 -38 -41 c-62 -69
-191 -238 -262 -345 -72 -106 -150 -231 -150 -239 0 -3 1642 -5 3650 -5 l3650
0 19 -37 c102 -201 239 -607 305 -903 77 -346 100 -575 100 -970 0 -429 -30
-690 -124 -1076 -89 -367 -278 -847 -433 -1096 l-29 -48 -3469 0 -3470 0 63
-82 c102 -135 226 -274 375 -420 l140 -138 2952 0 2952 0 -21 -30 c-43 -60
-355 -372 -472 -472 -631 -539 -1364 -884 -2160 -1017 -286 -48 -388 -56 -738
-56 -412 0 -631 23 -985 101 -1120 249 -2099 924 -2737 1889 -65 98 -144 231
-175 295 -30 63 -61 122 -68 130 -6 8 -37 70 -69 137 -569 1224 -549 2670 54
3873 87 173 159 295 285 485 551 827 1371 1447 2317 1753 379 123 766 193
1163 212 88 4 162 8 165 8 3 1 105 -3 228 -8z m-3615 -702 c-840 -775 -1394
-1796 -1577 -2908 -52 -315 -60 -429 -61 -820 0 -381 6 -482 50 -775 48 -328
145 -705 254 -994 28 -74 51 -136 51 -138 0 -2 -264 -2 -587 -1 -578 4 -589 4
-663 27 -92 27 -222 88 -286 132 -77 52 -188 164 -242 242 -61 89 -88 141
-119 232 -56 164 -53 35 -53 2656 l0 2419 1655 0 1655 0 -77 -72z m10095
-2395 l-3 -2468 -28 -88 c-102 -327 -328 -553 -654 -654 l-88 -28 -588 -3
-587 -3 21 53 c199 503 313 1053 338 1638 47 1071 -245 2117 -842 3015 -195
294 -396 536 -669 808 l-199 197 1651 0 1650 0 -2 -2467z"/>
<path d="M5751 6789 c-213 -37 -413 -154 -536 -311 -243 -310 -297 -860 -126
-1259 118 -273 328 -446 626 -515 118 -28 349 -26 469 4 232 58 417 187 525
366 42 70 91 211 98 282 l6 54 -207 -2 -207 -3 -17 -50 c-64 -189 -221 -295
-438 -295 -270 0 -454 187 -505 513 -15 96 -6 342 16 427 28 109 89 223 153
288 215 220 607 170 740 -94 17 -33 35 -79 41 -102 l12 -42 208 0 208 0 -9 63
c-13 83 -58 214 -99 285 -19 31 -77 100 -129 152 -77 78 -112 104 -186 142
-49 26 -130 59 -180 74 -77 23 -110 27 -249 30 -88 1 -184 -1 -214 -7z"/>
<path d="M7211 6738 c0 -7 150 -458 332 -1003 l332 -990 260 0 259 0 328 990
c180 545 327 996 328 1003 0 9 -50 12 -220 12 l-219 0 -19 -62 c-11 -35 -113
-381 -228 -770 -114 -391 -213 -708 -219 -708 -6 0 -104 315 -218 703 -114
386 -217 732 -228 770 l-20 67 -234 0 c-182 0 -235 -3 -234 -12z"/>
<path d="M9410 6743 c0 -5 151 -456 334 -1003 l334 -995 259 -3 259 -2 330
1002 331 1003 -220 3 c-121 1 -221 1 -223 -1 -2 -2 -103 -341 -224 -753 -122
-412 -223 -757 -226 -766 -3 -10 -11 -18 -17 -18 -7 0 -104 313 -238 768
l-225 767 -237 3 c-130 1 -237 -1 -237 -5z"/>
</g>
</svg>
